<svg width="236" height="60" viewBox="0 0 236 60" fill="none" xmlns="http://www.w3.org/2000/svg">
<rect x="13" width="223" height="60" rx="30" fill="#F6CA14"/>
<path d="M118.22 39.24C116.524 39.24 114.988 38.872 113.612 38.136C112.252 37.384 111.18 36.352 110.396 35.04C109.628 33.728 109.244 32.248 109.244 30.6C109.244 28.952 109.636 27.472 110.42 26.16C111.204 24.848 112.276 23.824 113.636 23.088C115.012 22.336 116.548 21.96 118.244 21.96C119.62 21.96 120.876 22.2 122.012 22.68C123.148 23.16 124.108 23.856 124.892 24.768L122.876 26.664C121.66 25.352 120.164 24.696 118.388 24.696C117.236 24.696 116.204 24.952 115.292 25.464C114.38 25.96 113.668 26.656 113.156 27.552C112.644 28.448 112.388 29.464 112.388 30.6C112.388 31.736 112.644 32.752 113.156 33.648C113.668 34.544 114.38 35.248 115.292 35.76C116.204 36.256 117.236 36.504 118.388 36.504C120.164 36.504 121.66 35.84 122.876 34.512L124.892 36.432C124.108 37.344 123.14 38.04 121.988 38.52C120.852 39 119.596 39.24 118.22 39.24ZM132.884 39.168C131.588 39.168 130.42 38.888 129.38 38.328C128.34 37.768 127.524 36.992 126.932 36C126.356 34.992 126.068 33.856 126.068 32.592C126.068 31.328 126.356 30.2 126.932 29.208C127.524 28.216 128.34 27.44 129.38 26.88C130.42 26.32 131.588 26.04 132.884 26.04C134.196 26.04 135.372 26.32 136.412 26.88C137.452 27.44 138.26 28.216 138.836 29.208C139.428 30.2 139.724 31.328 139.724 32.592C139.724 33.856 139.428 34.992 138.836 36C138.26 36.992 137.452 37.768 136.412 38.328C135.372 38.888 134.196 39.168 132.884 39.168ZM132.884 36.6C133.988 36.6 134.9 36.232 135.62 35.496C136.34 34.76 136.7 33.792 136.7 32.592C136.7 31.392 136.34 30.424 135.62 29.688C134.9 28.952 133.988 28.584 132.884 28.584C131.78 28.584 130.868 28.952 130.148 29.688C129.444 30.424 129.092 31.392 129.092 32.592C129.092 33.792 129.444 34.76 130.148 35.496C130.868 36.232 131.78 36.6 132.884 36.6ZM149.865 26.04C151.481 26.04 152.777 26.512 153.753 27.456C154.729 28.4 155.217 29.8 155.217 31.656V39H152.217V32.04C152.217 30.92 151.953 30.08 151.425 29.52C150.897 28.944 150.145 28.656 149.169 28.656C148.065 28.656 147.193 28.992 146.553 29.664C145.913 30.32 145.593 31.272 145.593 32.52V39H142.593V26.184H145.449V27.84C145.945 27.248 146.569 26.8 147.321 26.496C148.073 26.192 148.921 26.04 149.865 26.04ZM166.295 26.04C167.911 26.04 169.207 26.512 170.183 27.456C171.159 28.4 171.647 29.8 171.647 31.656V39H168.647V32.04C168.647 30.92 168.383 30.08 167.855 29.52C167.327 28.944 166.575 28.656 165.599 28.656C164.495 28.656 163.623 28.992 162.983 29.664C162.343 30.32 162.023 31.272 162.023 32.52V39H159.023V26.184H161.879V27.84C162.375 27.248 162.999 26.8 163.751 26.496C164.503 26.192 165.351 26.04 166.295 26.04ZM187.618 32.664C187.618 32.872 187.602 33.168 187.57 33.552H177.514C177.69 34.496 178.146 35.248 178.882 35.808C179.634 36.352 180.562 36.624 181.666 36.624C183.074 36.624 184.234 36.16 185.146 35.232L186.754 37.08C186.178 37.768 185.45 38.288 184.57 38.64C183.69 38.992 182.698 39.168 181.594 39.168C180.186 39.168 178.946 38.888 177.874 38.328C176.802 37.768 175.97 36.992 175.378 36C174.802 34.992 174.514 33.856 174.514 32.592C174.514 31.344 174.794 30.224 175.354 29.232C175.93 28.224 176.722 27.44 177.73 26.88C178.738 26.32 179.874 26.04 181.138 26.04C182.386 26.04 183.498 26.32 184.474 26.88C185.466 27.424 186.234 28.2 186.778 29.208C187.338 30.2 187.618 31.352 187.618 32.664ZM181.138 28.44C180.178 28.44 179.362 28.728 178.69 29.304C178.034 29.864 177.634 30.616 177.49 31.56H184.762C184.634 30.632 184.242 29.88 183.586 29.304C182.93 28.728 182.114 28.44 181.138 28.44ZM196.379 39.168C195.051 39.168 193.859 38.888 192.803 38.328C191.747 37.768 190.923 36.992 190.331 36C189.739 34.992 189.443 33.856 189.443 32.592C189.443 31.328 189.739 30.2 190.331 29.208C190.923 28.216 191.739 27.44 192.779 26.88C193.835 26.32 195.035 26.04 196.379 26.04C197.643 26.04 198.747 26.296 199.691 26.808C200.651 27.32 201.371 28.056 201.851 29.016L199.547 30.36C199.179 29.768 198.715 29.328 198.155 29.04C197.611 28.736 197.011 28.584 196.355 28.584C195.235 28.584 194.307 28.952 193.571 29.688C192.835 30.408 192.467 31.376 192.467 32.592C192.467 33.808 192.827 34.784 193.547 35.52C194.283 36.24 195.219 36.6 196.355 36.6C197.011 36.6 197.611 36.456 198.155 36.168C198.715 35.864 199.179 35.416 199.547 34.824L201.851 36.168C201.355 37.128 200.627 37.872 199.667 38.4C198.723 38.912 197.627 39.168 196.379 39.168ZM212.313 38.304C211.961 38.592 211.529 38.808 211.017 38.952C210.521 39.096 209.993 39.168 209.433 39.168C208.025 39.168 206.937 38.8 206.169 38.064C205.401 37.328 205.017 36.256 205.017 34.848V28.68H202.905V26.28H205.017V23.352H208.017V26.28H211.449V28.68H208.017V34.776C208.017 35.4 208.169 35.88 208.473 36.216C208.777 36.536 209.217 36.696 209.793 36.696C210.465 36.696 211.025 36.52 211.473 36.168L212.313 38.304Z" fill="#3F2D3B"/>
<path d="M0 30.5C0 23.5964 4.92487 18 11 18H77C83.0751 18 88 23.5964 88 30.5C88 37.4036 83.0751 43 77 43H11C4.92487 43 0 37.4036 0 30.5Z" fill="#1877F2"/>
<path d="M15.668 34.6663H14.168C14.168 32.2731 16.1827 30.333 18.668 30.333C21.1532 30.333 23.168 32.2731 23.168 34.6663H21.668C21.668 33.0709 20.3248 31.7775 18.668 31.7775C17.0111 31.7775 15.668 33.0709 15.668 34.6663ZM26.918 32.4997H25.418V30.333H23.168V28.8886H25.418V26.7219H26.918V28.8886H29.168V30.333H26.918V32.4997ZM18.668 29.6108C17.0111 29.6108 15.668 28.3174 15.668 26.7219C15.668 25.1264 17.0111 23.833 18.668 23.833C20.3248 23.833 21.668 25.1264 21.668 26.7219C21.6659 28.3166 20.324 29.6088 18.668 29.6108ZM18.668 25.2775C17.8485 25.2783 17.1814 25.9122 17.1696 26.7012C17.1579 27.4902 17.8059 28.1423 18.625 28.1657C19.4441 28.1891 20.1311 27.5752 20.168 26.7869V27.0758V26.7219C20.168 25.9242 19.4964 25.2775 18.668 25.2775Z" fill="#ECF0F3"/>
<path d="M38.8594 27.2469V30.4553H43.0828V31.2019H38.8594V34.6669H37.9961V26.5003H43.5961V27.2469H38.8594Z" fill="#ECF0F3"/>
<path d="M47.5072 34.7253C46.916 34.7253 46.3833 34.593 45.9088 34.3286C45.4344 34.0564 45.061 33.683 44.7888 33.2086C44.5166 32.7341 44.3805 32.1975 44.3805 31.5986C44.3805 30.9997 44.5166 30.463 44.7888 29.9886C45.061 29.5141 45.4344 29.1447 45.9088 28.8803C46.3833 28.6158 46.916 28.4836 47.5072 28.4836C48.0983 28.4836 48.631 28.6158 49.1055 28.8803C49.5799 29.1447 49.9494 29.5141 50.2138 29.9886C50.486 30.463 50.6222 30.9997 50.6222 31.5986C50.6222 32.1975 50.486 32.7341 50.2138 33.2086C49.9494 33.683 49.5799 34.0564 49.1055 34.3286C48.631 34.593 48.0983 34.7253 47.5072 34.7253ZM47.5072 33.9903C47.9427 33.9903 48.3316 33.893 48.6738 33.6986C49.0238 33.4964 49.296 33.2125 49.4905 32.8469C49.6849 32.4814 49.7822 32.0653 49.7822 31.5986C49.7822 31.1319 49.6849 30.7158 49.4905 30.3503C49.296 29.9847 49.0238 29.7047 48.6738 29.5103C48.3316 29.308 47.9427 29.2069 47.5072 29.2069C47.0716 29.2069 46.6788 29.308 46.3288 29.5103C45.9866 29.7047 45.7144 29.9847 45.5122 30.3503C45.3177 30.7158 45.2205 31.1319 45.2205 31.5986C45.2205 32.0653 45.3177 32.4814 45.5122 32.8469C45.7144 33.2125 45.9866 33.4964 46.3288 33.6986C46.6788 33.893 47.0716 33.9903 47.5072 33.9903Z" fill="#ECF0F3"/>
<path d="M52.3133 26.0103H53.1416V34.6669H52.3133V26.0103Z" fill="#ECF0F3"/>
<path d="M55.4464 26.0103H56.2748V34.6669H55.4464V26.0103Z" fill="#ECF0F3"/>
<path d="M61.0879 34.7253C60.4968 34.7253 59.964 34.593 59.4896 34.3286C59.0151 34.0564 58.6418 33.683 58.3696 33.2086C58.0973 32.7341 57.9612 32.1975 57.9612 31.5986C57.9612 30.9997 58.0973 30.463 58.3696 29.9886C58.6418 29.5141 59.0151 29.1447 59.4896 28.8803C59.964 28.6158 60.4968 28.4836 61.0879 28.4836C61.679 28.4836 62.2118 28.6158 62.6862 28.8803C63.1607 29.1447 63.5301 29.5141 63.7946 29.9886C64.0668 30.463 64.2029 30.9997 64.2029 31.5986C64.2029 32.1975 64.0668 32.7341 63.7946 33.2086C63.5301 33.683 63.1607 34.0564 62.6862 34.3286C62.2118 34.593 61.679 34.7253 61.0879 34.7253ZM61.0879 33.9903C61.5234 33.9903 61.9123 33.893 62.2546 33.6986C62.6046 33.4964 62.8768 33.2125 63.0712 32.8469C63.2657 32.4814 63.3629 32.0653 63.3629 31.5986C63.3629 31.1319 63.2657 30.7158 63.0712 30.3503C62.8768 29.9847 62.6046 29.7047 62.2546 29.5103C61.9123 29.308 61.5234 29.2069 61.0879 29.2069C60.6523 29.2069 60.2596 29.308 59.9096 29.5103C59.5673 29.7047 59.2951 29.9847 59.0929 30.3503C58.8984 30.7158 58.8012 31.1319 58.8012 31.5986C58.8012 32.0653 58.8984 32.4814 59.0929 32.8469C59.2951 33.2125 59.5673 33.4964 59.9096 33.6986C60.2596 33.893 60.6523 33.9903 61.0879 33.9903Z" fill="#ECF0F3"/>
<path d="M74.7298 28.5303L72.4081 34.6669H71.6264L69.6898 29.6386L67.7531 34.6669H66.9714L64.6614 28.5303H65.4548L67.3798 33.7453L69.3514 28.5303H70.0631L72.0231 33.7453L73.9714 28.5303H74.7298Z" fill="#ECF0F3"/>
</svg>
