<svg width="194" height="60" viewBox="0 0 194 60" fill="none" xmlns="http://www.w3.org/2000/svg">
<rect width="194" height="60" rx="30" fill="#C4C4C4"/>
<path d="M161 15C152.72 15 146 21.72 146 30C146 38.28 152.72 45 161 45C169.28 45 176 38.28 176 30C176 21.72 169.28 15 161 15ZM168.5 31.5H162.5V37.5H159.5V31.5H153.5V28.5H159.5V22.5H162.5V28.5H168.5V31.5Z" fill="#3F2D3B"/>
<path d="M44.9734 39.24C43.2774 39.24 41.7414 38.872 40.3654 38.136C39.0054 37.384 37.9334 36.352 37.1494 35.04C36.3814 33.728 35.9974 32.248 35.9974 30.6C35.9974 28.952 36.3894 27.472 37.1734 26.16C37.9574 24.848 39.0294 23.824 40.3894 23.088C41.7654 22.336 43.3014 21.96 44.9974 21.96C46.3734 21.96 47.6294 22.2 48.7654 22.68C49.9014 23.16 50.8614 23.856 51.6454 24.768L49.6294 26.664C48.4134 25.352 46.9174 24.696 45.1414 24.696C43.9894 24.696 42.9574 24.952 42.0454 25.464C41.1334 25.96 40.4214 26.656 39.9094 27.552C39.3974 28.448 39.1414 29.464 39.1414 30.6C39.1414 31.736 39.3974 32.752 39.9094 33.648C40.4214 34.544 41.1334 35.248 42.0454 35.76C42.9574 36.256 43.9894 36.504 45.1414 36.504C46.9174 36.504 48.4134 35.84 49.6294 34.512L51.6454 36.432C50.8614 37.344 49.8934 38.04 48.7414 38.52C47.6054 39 46.3494 39.24 44.9734 39.24ZM57.2029 28.056C58.0669 26.712 59.5869 26.04 61.7629 26.04V28.896C61.5069 28.848 61.2749 28.824 61.0669 28.824C59.8989 28.824 58.9869 29.168 58.3309 29.856C57.6749 30.528 57.3469 31.504 57.3469 32.784V39H54.3469V26.184H57.2029V28.056ZM76.2387 32.664C76.2387 32.872 76.2227 33.168 76.1907 33.552H66.1347C66.3107 34.496 66.7667 35.248 67.5027 35.808C68.2547 36.352 69.1827 36.624 70.2867 36.624C71.6947 36.624 72.8547 36.16 73.7667 35.232L75.3747 37.08C74.7987 37.768 74.0707 38.288 73.1907 38.64C72.3107 38.992 71.3187 39.168 70.2147 39.168C68.8067 39.168 67.5667 38.888 66.4947 38.328C65.4227 37.768 64.5907 36.992 63.9987 36C63.4227 34.992 63.1347 33.856 63.1347 32.592C63.1347 31.344 63.4147 30.224 63.9747 29.232C64.5507 28.224 65.3427 27.44 66.3507 26.88C67.3587 26.32 68.4947 26.04 69.7587 26.04C71.0067 26.04 72.1187 26.32 73.0947 26.88C74.0867 27.424 74.8547 28.2 75.3987 29.208C75.9587 30.2 76.2387 31.352 76.2387 32.664ZM69.7587 28.44C68.7987 28.44 67.9827 28.728 67.3107 29.304C66.6547 29.864 66.2547 30.616 66.1107 31.56H73.3827C73.2547 30.632 72.8627 29.88 72.2067 29.304C71.5507 28.728 70.7347 28.44 69.7587 28.44ZM83.6648 26.04C85.5528 26.04 86.9928 26.496 87.9848 27.408C88.9928 28.304 89.4968 29.664 89.4968 31.488V39H86.6648V37.44C86.2968 38 85.7688 38.432 85.0808 38.736C84.4088 39.024 83.5928 39.168 82.6328 39.168C81.6728 39.168 80.8328 39.008 80.1128 38.688C79.3928 38.352 78.8328 37.896 78.4328 37.32C78.0488 36.728 77.8568 36.064 77.8568 35.328C77.8568 34.176 78.2808 33.256 79.1288 32.568C79.9928 31.864 81.3448 31.512 83.1848 31.512H86.4968V31.32C86.4968 30.424 86.2248 29.736 85.6808 29.256C85.1528 28.776 84.3608 28.536 83.3048 28.536C82.5848 28.536 81.8728 28.648 81.1688 28.872C80.4808 29.096 79.8968 29.408 79.4168 29.808L78.2408 27.624C78.9128 27.112 79.7208 26.72 80.6648 26.448C81.6088 26.176 82.6088 26.04 83.6648 26.04ZM83.2568 36.984C84.0088 36.984 84.6728 36.816 85.2488 36.48C85.8408 36.128 86.2568 35.632 86.4968 34.992V33.504H83.4008C81.6728 33.504 80.8088 34.072 80.8088 35.208C80.8088 35.752 81.0248 36.184 81.4568 36.504C81.8888 36.824 82.4888 36.984 83.2568 36.984ZM101.051 38.304C100.699 38.592 100.267 38.808 99.7549 38.952C99.2589 39.096 98.7309 39.168 98.1709 39.168C96.7629 39.168 95.6749 38.8 94.9069 38.064C94.1389 37.328 93.7549 36.256 93.7549 34.848V28.68H91.6429V26.28H93.7549V23.352H96.7549V26.28H100.187V28.68H96.7549V34.776C96.7549 35.4 96.9069 35.88 97.2109 36.216C97.5149 36.536 97.9549 36.696 98.5309 36.696C99.2029 36.696 99.7629 36.52 100.211 36.168L101.051 38.304ZM115.145 32.664C115.145 32.872 115.129 33.168 115.097 33.552H105.041C105.217 34.496 105.673 35.248 106.409 35.808C107.161 36.352 108.089 36.624 109.193 36.624C110.601 36.624 111.761 36.16 112.673 35.232L114.281 37.08C113.705 37.768 112.977 38.288 112.097 38.64C111.217 38.992 110.225 39.168 109.121 39.168C107.713 39.168 106.473 38.888 105.401 38.328C104.329 37.768 103.497 36.992 102.905 36C102.329 34.992 102.041 33.856 102.041 32.592C102.041 31.344 102.321 30.224 102.881 29.232C103.457 28.224 104.249 27.44 105.257 26.88C106.265 26.32 107.401 26.04 108.665 26.04C109.913 26.04 111.025 26.32 112.001 26.88C112.993 27.424 113.761 28.2 114.305 29.208C114.865 30.2 115.145 31.352 115.145 32.664ZM108.665 28.44C107.705 28.44 106.889 28.728 106.217 29.304C105.561 29.864 105.161 30.616 105.017 31.56H112.289C112.161 30.632 111.769 29.88 111.113 29.304C110.457 28.728 109.641 28.44 108.665 28.44Z" fill="#3F2D3B"/>
</svg>
