<svg width="337" height="110" viewBox="0 0 337 110" fill="none" xmlns="http://www.w3.org/2000/svg">
<path d="M69.6723 74.0072H62.5911C63.5232 74.8491 64.2449 75.8865 64.756 77.1193H69.6723V80.2766H65.4326C65.4626 80.4871 65.4777 80.7878 65.4777 81.1787C65.4777 83.5541 64.8613 85.5687 63.6284 87.2225C62.4257 88.8462 60.7118 90.064 58.4866 90.8759L66.064 102.422H59.7495L52.8487 91.8682H43.6025V86.9068H51.7211C54.3973 86.9068 56.3668 86.3655 57.6297 85.2831C58.9226 84.2006 59.5691 82.7422 59.5691 80.908V80.2766H40.9414V77.1193H58.622C57.9905 76.097 57.0584 75.3152 55.8255 74.774C54.6228 74.2327 53.1193 73.9771 51.3152 74.0072H40.9414V70.85H69.6723V74.0072Z" fill="#3F2D3B"/>
<path d="M113.74 97.461V102.422H90.4671V98.4984L103.006 86.5911C104.419 85.238 105.366 84.0653 105.847 83.073C106.359 82.0507 106.614 81.0433 106.614 80.0511C106.614 78.5777 106.118 77.4501 105.126 76.6683C104.133 75.8865 102.675 75.4956 100.751 75.4956C97.5333 75.4956 95.0677 76.5931 93.3537 78.7882L89.2493 75.6309C90.4821 73.9771 92.1359 72.6992 94.2107 71.7971C96.3155 70.865 98.6609 70.3989 101.247 70.3989C104.675 70.3989 107.411 71.2108 109.456 72.8345C111.5 74.4582 112.523 76.6683 112.523 79.4647C112.523 81.1787 112.162 82.7873 111.44 84.2908C110.719 85.7942 109.335 87.5082 107.291 89.4326L98.8563 97.461H113.74Z" fill="#3F2D3B"/>
<path d="M129.257 83.073C133.708 83.073 137 83.945 139.135 85.689C141.27 87.4029 142.337 89.7483 142.337 92.7251C142.337 94.6195 141.871 96.3334 140.939 97.8669C140.007 99.4004 138.609 100.618 136.745 101.52C134.88 102.422 132.58 102.873 129.844 102.873C127.589 102.873 125.409 102.558 123.304 101.926C121.199 101.265 119.425 100.363 117.982 99.22L120.462 94.6646C121.635 95.6268 123.033 96.3935 124.657 96.9649C126.311 97.5061 128.01 97.7767 129.754 97.7767C131.828 97.7767 133.452 97.3558 134.625 96.5138C135.828 95.6418 136.429 94.4541 136.429 92.9507C136.429 91.3269 135.782 90.1091 134.489 89.2973C133.227 88.4553 131.047 88.0344 127.949 88.0344H120.327L121.951 70.85H140.488V75.7662H126.912L126.236 83.073H129.257Z" fill="#3F2D3B"/>
<path d="M161.145 102.873C158.619 102.873 156.364 102.242 154.379 100.979C152.395 99.6861 150.831 97.8218 149.689 95.3862C148.546 92.9206 147.975 90.0039 147.975 86.6362C147.975 83.2684 148.546 80.3668 149.689 77.9312C150.831 75.4655 152.395 73.6013 154.379 72.3384C156.364 71.0454 158.619 70.3989 161.145 70.3989C163.671 70.3989 165.926 71.0454 167.91 72.3384C169.925 73.6013 171.504 75.4655 172.646 77.9312C173.789 80.3668 174.36 83.2684 174.36 86.6362C174.36 90.0039 173.789 92.9206 172.646 95.3862C171.504 97.8218 169.925 99.6861 167.91 100.979C165.926 102.242 163.671 102.873 161.145 102.873ZM161.145 97.7767C163.4 97.7767 165.174 96.8446 166.467 94.9803C167.79 93.116 168.452 90.3347 168.452 86.6362C168.452 82.9377 167.79 80.1563 166.467 78.292C165.174 76.4278 163.4 75.4956 161.145 75.4956C158.92 75.4956 157.146 76.4278 155.823 78.292C154.53 80.1563 153.883 82.9377 153.883 86.6362C153.883 90.3347 154.53 93.116 155.823 94.9803C157.146 96.8446 158.92 97.7767 161.145 97.7767Z" fill="#3F2D3B"/>
<path d="M183.612 95.2509C184.665 95.2509 185.537 95.5967 186.228 96.2883C186.92 96.9799 187.266 97.882 187.266 98.9945C187.266 99.4756 187.191 99.9868 187.04 100.528C186.92 101.039 186.649 101.821 186.228 102.873L183.928 109.233H180.275L182.079 102.332C181.417 102.062 180.891 101.641 180.5 101.069C180.139 100.468 179.959 99.7763 179.959 98.9945C179.959 97.882 180.305 96.9799 180.996 96.2883C181.688 95.5967 182.56 95.2509 183.612 95.2509Z" fill="#3F2D3B"/>
<path d="M205.958 102.873C203.432 102.873 201.177 102.242 199.192 100.979C197.208 99.6861 195.644 97.8218 194.501 95.3862C193.359 92.9206 192.787 90.0039 192.787 86.6362C192.787 83.2684 193.359 80.3668 194.501 77.9312C195.644 75.4655 197.208 73.6013 199.192 72.3384C201.177 71.0454 203.432 70.3989 205.958 70.3989C208.483 70.3989 210.739 71.0454 212.723 72.3384C214.738 73.6013 216.316 75.4655 217.459 77.9312C218.602 80.3668 219.173 83.2684 219.173 86.6362C219.173 90.0039 218.602 92.9206 217.459 95.3862C216.316 97.8218 214.738 99.6861 212.723 100.979C210.739 102.242 208.483 102.873 205.958 102.873ZM205.958 97.7767C208.213 97.7767 209.987 96.8446 211.28 94.9803C212.603 93.116 213.264 90.3347 213.264 86.6362C213.264 82.9377 212.603 80.1563 211.28 78.292C209.987 76.4278 208.213 75.4956 205.958 75.4956C203.733 75.4956 201.958 76.4278 200.635 78.292C199.342 80.1563 198.696 82.9377 198.696 86.6362C198.696 90.3347 199.342 93.116 200.635 94.9803C201.958 96.8446 203.733 97.7767 205.958 97.7767Z" fill="#3F2D3B"/>
<path d="M238.561 102.873C236.035 102.873 233.78 102.242 231.795 100.979C229.811 99.6861 228.247 97.8218 227.104 95.3862C225.962 92.9206 225.391 90.0039 225.391 86.6362C225.391 83.2684 225.962 80.3668 227.104 77.9312C228.247 75.4655 229.811 73.6013 231.795 72.3384C233.78 71.0454 236.035 70.3989 238.561 70.3989C241.087 70.3989 243.342 71.0454 245.326 72.3384C247.341 73.6013 248.92 75.4655 250.062 77.9312C251.205 80.3668 251.776 83.2684 251.776 86.6362C251.776 90.0039 251.205 92.9206 250.062 95.3862C248.92 97.8218 247.341 99.6861 245.326 100.979C243.342 102.242 241.087 102.873 238.561 102.873ZM238.561 97.7767C240.816 97.7767 242.59 96.8446 243.883 94.9803C245.206 93.116 245.868 90.3347 245.868 86.6362C245.868 82.9377 245.206 80.1563 243.883 78.292C242.59 76.4278 240.816 75.4956 238.561 75.4956C236.336 75.4956 234.562 76.4278 233.239 78.292C231.946 80.1563 231.299 82.9377 231.299 86.6362C231.299 90.3347 231.946 93.116 233.239 94.9803C234.562 96.8446 236.336 97.7767 238.561 97.7767Z" fill="#3F2D3B"/>
<path d="M271.164 102.873C268.638 102.873 266.383 102.242 264.398 100.979C262.414 99.6861 260.85 97.8218 259.708 95.3862C258.565 92.9206 257.994 90.0039 257.994 86.6362C257.994 83.2684 258.565 80.3668 259.708 77.9312C260.85 75.4655 262.414 73.6013 264.398 72.3384C266.383 71.0454 268.638 70.3989 271.164 70.3989C273.69 70.3989 275.945 71.0454 277.929 72.3384C279.944 73.6013 281.523 75.4655 282.665 77.9312C283.808 80.3668 284.379 83.2684 284.379 86.6362C284.379 90.0039 283.808 92.9206 282.665 95.3862C281.523 97.8218 279.944 99.6861 277.929 100.979C275.945 102.242 273.69 102.873 271.164 102.873ZM271.164 97.7767C273.419 97.7767 275.193 96.8446 276.486 94.9803C277.809 93.116 278.471 90.3347 278.471 86.6362C278.471 82.9377 277.809 80.1563 276.486 78.292C275.193 76.4278 273.419 75.4956 271.164 75.4956C268.939 75.4956 267.165 76.4278 265.842 78.292C264.549 80.1563 263.902 82.9377 263.902 86.6362C263.902 90.3347 264.549 93.116 265.842 94.9803C267.165 96.8446 268.939 97.7767 271.164 97.7767Z" fill="#3F2D3B"/>
<rect x="48.2227" y="19.7329" width="229.276" height="38.5259" fill="#3F2D3B"/>
<path d="M308.843 16.3303L317.969 31.7922L311.435 34.0965L308.843 16.3303Z" fill="#EAD300"/>
<circle cx="296.57" cy="23.5" r="3.5" fill="#EAA900"/>
<rect x="326.941" y="17" width="3" height="5" transform="rotate(21.9912 326.941 17)" fill="#EA0000"/>
<rect x="292.477" y="12.5156" width="12" height="4" transform="rotate(-116.768 292.477 12.5156)" fill="#EA0000"/>
<path d="M330.309 37.7445C331.958 37.9105 333.56 35.4027 333.375 37.2414C333.19 39.08 331.704 40.4361 330.055 40.2702C328.407 40.1042 327.22 38.4792 327.405 36.6405C327.59 34.8018 328.661 37.5786 330.309 37.7445Z" fill="#005EEA"/>
<path d="M315.07 42L316.193 45.4549H319.826L316.887 47.5902L318.009 51.0451L315.07 48.9098L312.131 51.0451L313.254 47.5902L310.315 45.4549H313.948L315.07 42Z" fill="#05EA00"/>
<path d="M306.744 12.3155L307.242 8.02024L310.713 10.2211L311.109 6.61786L314.276 8.79927L315.262 4.90385" stroke="#005EEA"/>
<path d="M115.698 45.021V46.983H104.242V31.1968H115.383V33.1588H106.497V38.0074H114.413V39.9243H106.497V45.021H115.698Z" fill="#FDD015"/>
<path d="M123.233 34.9178C124.886 34.9178 126.149 35.3237 127.021 36.1356C127.908 36.9475 128.352 38.1577 128.352 39.7664V46.983H126.3V45.4044C125.939 45.9606 125.42 46.3891 124.744 46.6898C124.082 46.9755 123.293 47.1183 122.376 47.1183C121.038 47.1183 119.963 46.7951 119.151 46.1486C118.354 45.5021 117.956 44.6526 117.956 43.6002C117.956 42.5478 118.339 41.7059 119.106 41.0744C119.872 40.428 121.09 40.1047 122.759 40.1047H126.187V39.6762C126.187 38.7441 125.916 38.03 125.375 37.5338C124.834 37.0377 124.037 36.7896 122.985 36.7896C122.278 36.7896 121.586 36.9099 120.91 37.1504C120.233 37.3759 119.662 37.6842 119.196 38.0751L118.294 36.4513C118.91 35.9552 119.647 35.5793 120.504 35.3237C121.361 35.0531 122.27 34.9178 123.233 34.9178ZM122.737 45.4495C123.563 45.4495 124.278 45.2691 124.879 44.9082C125.48 44.5324 125.916 44.0062 126.187 43.3296V41.6608H122.849C121.015 41.6608 120.098 42.2772 120.098 43.51C120.098 44.1114 120.331 44.585 120.797 44.9308C121.263 45.2766 121.91 45.4495 122.737 45.4495Z" fill="#FDD015"/>
<path d="M134.433 37.0377C134.809 36.3461 135.365 35.8199 136.102 35.4591C136.839 35.0982 137.733 34.9178 138.786 34.9178V37.0151C138.665 37.0001 138.5 36.9926 138.289 36.9926C137.117 36.9926 136.192 37.3459 135.516 38.0525C134.854 38.7441 134.523 39.7364 134.523 41.0293V46.983H132.358V35.0306H134.433V37.0377Z" fill="#FDD015"/>
<path d="M147.836 34.9178C149.355 34.9178 150.557 35.3613 151.444 36.2484C152.346 37.1204 152.797 38.4058 152.797 40.1047V46.983H150.632V40.3528C150.632 39.1951 150.354 38.3231 149.798 37.7368C149.242 37.1504 148.445 36.8573 147.408 36.8573C146.235 36.8573 145.31 37.2031 144.634 37.8946C143.957 38.5712 143.619 39.5484 143.619 40.8264V46.983H141.454V35.0306H143.529V36.8347C143.965 36.2183 144.551 35.7447 145.288 35.414C146.039 35.0832 146.889 34.9178 147.836 34.9178Z" fill="#FDD015"/>
<path d="M169.716 47.1634C167.611 47.1634 165.973 46.562 164.8 45.3593C163.627 44.1565 163.041 42.4275 163.041 40.1724V31.1968H165.296V40.0822C165.296 43.4649 166.777 45.1563 169.739 45.1563C171.182 45.1563 172.287 44.7428 173.054 43.9159C173.821 43.074 174.204 41.7961 174.204 40.0822V31.1968H176.392V40.1724C176.392 42.4426 175.805 44.1791 174.632 45.3818C173.46 46.5695 171.821 47.1634 169.716 47.1634Z" fill="#FDD015"/>
<path d="M187.036 34.9178C188.194 34.9178 189.231 35.1734 190.148 35.6846C191.066 36.1957 191.78 36.9099 192.291 37.827C192.817 38.7441 193.08 39.804 193.08 41.0068C193.08 42.2095 192.817 43.277 192.291 44.2091C191.78 45.1262 191.066 45.8404 190.148 46.3515C189.231 46.8627 188.194 47.1183 187.036 47.1183C186.179 47.1183 185.39 46.9529 184.668 46.6222C183.962 46.2914 183.36 45.8103 182.864 45.1788V51.358H180.699V35.0306H182.774V36.9249C183.255 36.2634 183.864 35.7673 184.601 35.4365C185.337 35.0907 186.149 34.9178 187.036 34.9178ZM186.856 45.224C187.623 45.224 188.307 45.0511 188.908 44.7053C189.524 44.3444 190.006 43.8483 190.351 43.2168C190.712 42.5704 190.893 41.8337 190.893 41.0068C190.893 40.1799 190.712 39.4507 190.351 38.8193C190.006 38.1728 189.524 37.6766 188.908 37.3308C188.307 36.9851 187.623 36.8122 186.856 36.8122C186.104 36.8122 185.42 36.9926 184.804 37.3534C184.202 37.6992 183.721 38.1878 183.36 38.8193C183.015 39.4507 182.842 40.1799 182.842 41.0068C182.842 41.8337 183.015 42.5704 183.36 43.2168C183.706 43.8483 184.187 44.3444 184.804 44.7053C185.42 45.0511 186.104 45.224 186.856 45.224Z" fill="#FDD015"/>
<path d="M202.792 46.2839C202.476 46.5545 202.085 46.765 201.619 46.9153C201.153 47.0506 200.672 47.1183 200.176 47.1183C198.973 47.1183 198.041 46.7951 197.379 46.1486C196.718 45.5021 196.387 44.5775 196.387 43.3747V36.8122H194.357V35.0306H196.387V32.4146H198.552V35.0306H201.98V36.8122H198.552V43.2845C198.552 43.931 198.71 44.4271 199.026 44.7729C199.356 45.1187 199.823 45.2916 200.424 45.2916C201.085 45.2916 201.649 45.1037 202.115 44.7278L202.792 46.2839Z" fill="#FDD015"/>
<path d="M210.132 47.1183C208.944 47.1183 207.877 46.8552 206.93 46.329C205.983 45.8028 205.238 45.0811 204.697 44.164C204.171 43.2319 203.908 42.1795 203.908 41.0068C203.908 39.8341 204.171 38.7892 204.697 37.8721C205.238 36.94 205.983 36.2183 206.93 35.7071C207.877 35.1809 208.944 34.9178 210.132 34.9178C211.32 34.9178 212.38 35.1809 213.312 35.7071C214.259 36.2183 214.996 36.94 215.522 37.8721C216.063 38.7892 216.334 39.8341 216.334 41.0068C216.334 42.1795 216.063 43.2319 215.522 44.164C214.996 45.0811 214.259 45.8028 213.312 46.329C212.38 46.8552 211.32 47.1183 210.132 47.1183ZM210.132 45.224C210.899 45.224 211.583 45.0511 212.184 44.7053C212.801 44.3444 213.282 43.8483 213.628 43.2168C213.973 42.5704 214.146 41.8337 214.146 41.0068C214.146 40.1799 213.973 39.4507 213.628 38.8193C213.282 38.1728 212.801 37.6766 212.184 37.3308C211.583 36.9851 210.899 36.8122 210.132 36.8122C209.365 36.8122 208.674 36.9851 208.057 37.3308C207.456 37.6766 206.975 38.1728 206.614 38.8193C206.268 39.4507 206.095 40.1799 206.095 41.0068C206.095 41.8337 206.268 42.5704 206.614 43.2168C206.975 43.8483 207.456 44.3444 208.057 44.7053C208.674 45.0511 209.365 45.224 210.132 45.224Z" fill="#FDD015"/>
<circle cx="36.9479" cy="32.8873" r="2.81897" fill="#9F00EA"/>
<path d="M2.36399 29.7707L15.7989 28.5271L15.3985 33.6163L2.36399 29.7707Z" fill="#EA0000"/>
<rect x="22.8516" y="50.875" width="9.39655" height="4.69828" transform="rotate(-45.5869 22.8516 50.875)" fill="#EAA900"/>
<path d="M19.1748 42.2839C19.1748 42.2839 18.7174 39.5667 20.0301 39.0251C21.133 38.5701 22.0891 40.5822 22.9952 39.8527C23.9131 39.1138 21.6218 37.9432 22.368 37.0594C23.1534 36.1292 25.6752 37.0594 25.6752 37.0594" stroke="#005EEA" stroke-width="1.2"/>
<path d="M24.2614 21.6118L24.9998 23.8843H27.3893L25.4562 25.2888L26.1946 27.5613L24.2614 26.1568L22.3283 27.5613L23.0667 25.2888L21.1336 23.8843H23.5231L24.2614 21.6118Z" fill="#EAD300"/>
<path d="M5.93722 18.3769C5.93722 18.3769 11.9456 15.3842 13.3087 16.9528C14.0575 17.8145 14.623 18.8582 13.9523 19.7062C13.4354 20.3599 12.689 20.4432 11.8145 20.2896C9.96252 19.9644 9.99061 17.3926 10.734 15.7999C11.7604 13.6008 17.2089 14.8988 17.2089 14.8988" stroke="#05EA00" stroke-width="1.2"/>
<path d="M32.0661 10.8056C32.0661 13.1409 35.8092 15.034 33.2045 15.034C30.5998 15.034 28.4883 13.1409 28.4883 10.8056C28.4883 8.47029 30.5998 6.57715 33.2045 6.57715C35.8092 6.57715 32.0661 8.47029 32.0661 10.8056Z" fill="#9F00EA"/>
</svg>
