<svg width="270" height="200" viewBox="0 0 270 200" fill="none" xmlns="http://www.w3.org/2000/svg">
<g filter="url(#filter0_d)">
<path d="M227.778 47.9198C268.074 59.3783 268.074 116.622 227.778 128.08L64.9123 174.393C38.3754 181.939 12 161.96 12 134.313L12 41.6871C12 14.0398 38.3754 -5.93912 64.9123 1.60694L227.778 47.9198Z" fill="#3F2D3B"/>
</g>
<path d="M47.856 80.384V83H35.256V66.2H47.52V68.816H38.376V73.184H46.488V75.752H38.376V80.384H47.856ZM58.9718 83L55.6838 78.56L52.3717 83H49.0598L54.0518 76.496L49.2758 70.184H52.6118L55.7558 74.384L58.8998 70.184H62.1398L57.3398 76.448L62.3558 83H58.9718ZM71.6736 70.04C72.9216 70.04 74.0336 70.312 75.0096 70.856C76.0016 71.4 76.7776 72.168 77.3376 73.16C77.8976 74.152 78.1776 75.296 78.1776 76.592C78.1776 77.888 77.8976 79.04 77.3376 80.048C76.7776 81.04 76.0016 81.808 75.0096 82.352C74.0336 82.896 72.9216 83.168 71.6736 83.168C69.9456 83.168 68.5776 82.592 67.5696 81.44V87.656H64.5696V70.184H67.4256V71.864C67.9216 71.256 68.5296 70.8 69.2496 70.496C69.9856 70.192 70.7936 70.04 71.6736 70.04ZM71.3376 80.6C72.4416 80.6 73.3456 80.232 74.0496 79.496C74.7696 78.76 75.1296 77.792 75.1296 76.592C75.1296 75.392 74.7696 74.424 74.0496 73.688C73.3456 72.952 72.4416 72.584 71.3376 72.584C70.6176 72.584 69.9696 72.752 69.3936 73.088C68.8176 73.408 68.3616 73.872 68.0256 74.48C67.6896 75.088 67.5216 75.792 67.5216 76.592C67.5216 77.392 67.6896 78.096 68.0256 78.704C68.3616 79.312 68.8176 79.784 69.3936 80.12C69.9696 80.44 70.6176 80.6 71.3376 80.6ZM93.0707 76.664C93.0707 76.872 93.0547 77.168 93.0227 77.552H82.9667C83.1427 78.496 83.5987 79.248 84.3347 79.808C85.0867 80.352 86.0147 80.624 87.1187 80.624C88.5267 80.624 89.6867 80.16 90.5987 79.232L92.2067 81.08C91.6307 81.768 90.9027 82.288 90.0227 82.64C89.1427 82.992 88.1507 83.168 87.0467 83.168C85.6387 83.168 84.3987 82.888 83.3267 82.328C82.2547 81.768 81.4227 80.992 80.8307 80C80.2547 78.992 79.9667 77.856 79.9667 76.592C79.9667 75.344 80.2467 74.224 80.8067 73.232C81.3827 72.224 82.1747 71.44 83.1827 70.88C84.1907 70.32 85.3267 70.04 86.5907 70.04C87.8387 70.04 88.9507 70.32 89.9267 70.88C90.9187 71.424 91.6867 72.2 92.2307 73.208C92.7907 74.2 93.0707 75.352 93.0707 76.664ZM86.5907 72.44C85.6307 72.44 84.8147 72.728 84.1427 73.304C83.4867 73.864 83.0867 74.616 82.9427 75.56H90.2147C90.0867 74.632 89.6947 73.88 89.0387 73.304C88.3827 72.728 87.5667 72.44 86.5907 72.44ZM98.8084 72.056C99.6724 70.712 101.192 70.04 103.368 70.04V72.896C103.112 72.848 102.88 72.824 102.672 72.824C101.504 72.824 100.592 73.168 99.9364 73.856C99.2804 74.528 98.9524 75.504 98.9524 76.784V83H95.9524V70.184H98.8084V72.056ZM114.086 82.304C113.734 82.592 113.302 82.808 112.79 82.952C112.294 83.096 111.766 83.168 111.206 83.168C109.798 83.168 108.71 82.8 107.942 82.064C107.174 81.328 106.79 80.256 106.79 78.848V72.68H104.678V70.28H106.79V67.352H109.79V70.28H113.222V72.68H109.79V78.776C109.79 79.4 109.942 79.88 110.246 80.216C110.55 80.536 110.99 80.696 111.566 80.696C112.238 80.696 112.798 80.52 113.246 80.168L114.086 82.304ZM130.387 66.2C131.843 66.2 133.107 66.44 134.179 66.92C135.267 67.4 136.099 68.088 136.675 68.984C137.251 69.88 137.539 70.944 137.539 72.176C137.539 73.392 137.251 74.456 136.675 75.368C136.099 76.264 135.267 76.952 134.179 77.432C133.107 77.912 131.843 78.152 130.387 78.152H126.595V83H123.475V66.2H130.387ZM130.243 75.512C131.603 75.512 132.635 75.224 133.339 74.648C134.043 74.072 134.395 73.248 134.395 72.176C134.395 71.104 134.043 70.28 133.339 69.704C132.635 69.128 131.603 68.84 130.243 68.84H126.595V75.512H130.243ZM145.145 70.04C147.033 70.04 148.473 70.496 149.465 71.408C150.473 72.304 150.977 73.664 150.977 75.488V83H148.145V81.44C147.777 82 147.249 82.432 146.561 82.736C145.889 83.024 145.073 83.168 144.113 83.168C143.153 83.168 142.313 83.008 141.593 82.688C140.873 82.352 140.313 81.896 139.913 81.32C139.529 80.728 139.337 80.064 139.337 79.328C139.337 78.176 139.761 77.256 140.609 76.568C141.473 75.864 142.825 75.512 144.665 75.512H147.977V75.32C147.977 74.424 147.705 73.736 147.161 73.256C146.633 72.776 145.841 72.536 144.785 72.536C144.065 72.536 143.353 72.648 142.649 72.872C141.961 73.096 141.377 73.408 140.897 73.808L139.721 71.624C140.393 71.112 141.201 70.72 142.145 70.448C143.089 70.176 144.089 70.04 145.145 70.04ZM144.737 80.984C145.489 80.984 146.153 80.816 146.729 80.48C147.321 80.128 147.737 79.632 147.977 78.992V77.504H144.881C143.153 77.504 142.289 78.072 142.289 79.208C142.289 79.752 142.505 80.184 142.937 80.504C143.369 80.824 143.969 80.984 144.737 80.984ZM162.099 70.04C163.715 70.04 165.011 70.512 165.987 71.456C166.963 72.4 167.451 73.8 167.451 75.656V83H164.451V76.04C164.451 74.92 164.187 74.08 163.659 73.52C163.131 72.944 162.379 72.656 161.403 72.656C160.299 72.656 159.427 72.992 158.787 73.664C158.147 74.32 157.827 75.272 157.827 76.52V83H154.827V70.184H157.683V71.84C158.179 71.248 158.803 70.8 159.555 70.496C160.307 70.192 161.155 70.04 162.099 70.04ZM183.422 76.664C183.422 76.872 183.406 77.168 183.374 77.552H173.318C173.494 78.496 173.95 79.248 174.686 79.808C175.438 80.352 176.366 80.624 177.47 80.624C178.878 80.624 180.038 80.16 180.95 79.232L182.558 81.08C181.982 81.768 181.254 82.288 180.374 82.64C179.494 82.992 178.502 83.168 177.398 83.168C175.99 83.168 174.75 82.888 173.678 82.328C172.606 81.768 171.774 80.992 171.182 80C170.606 78.992 170.318 77.856 170.318 76.592C170.318 75.344 170.598 74.224 171.158 73.232C171.734 72.224 172.526 71.44 173.534 70.88C174.542 70.32 175.678 70.04 176.942 70.04C178.19 70.04 179.302 70.32 180.278 70.88C181.27 71.424 182.038 72.2 182.582 73.208C183.142 74.2 183.422 75.352 183.422 76.664ZM176.942 72.44C175.982 72.44 175.166 72.728 174.494 73.304C173.838 73.864 173.438 74.616 173.294 75.56H180.566C180.438 74.632 180.046 73.88 179.39 73.304C178.734 72.728 177.918 72.44 176.942 72.44ZM186.304 65.192H189.304V83H186.304V65.192Z" fill="white"/>
<path d="M38.264 97.2C39.5147 97.2 40.4947 97.4987 41.204 98.096C41.9133 98.6933 42.268 99.5147 42.268 100.56C42.268 101.605 41.9133 102.427 41.204 103.024C40.4947 103.612 39.5147 103.906 38.264 103.906H35.632V107H34.596V97.2H38.264ZM38.236 102.996C39.2067 102.996 39.9487 102.786 40.462 102.366C40.9753 101.937 41.232 101.335 41.232 100.56C41.232 99.7667 40.9753 99.16 40.462 98.74C39.9487 98.3107 39.2067 98.096 38.236 98.096H35.632V102.996H38.236ZM47.2671 107.07C46.5578 107.07 45.9184 106.911 45.3491 106.594C44.7798 106.267 44.3318 105.819 44.0051 105.25C43.6784 104.681 43.5151 104.037 43.5151 103.318C43.5151 102.599 43.6784 101.955 44.0051 101.386C44.3318 100.817 44.7798 100.373 45.3491 100.056C45.9184 99.7387 46.5578 99.58 47.2671 99.58C47.9764 99.58 48.6158 99.7387 49.1851 100.056C49.7544 100.373 50.1978 100.817 50.5151 101.386C50.8418 101.955 51.0051 102.599 51.0051 103.318C51.0051 104.037 50.8418 104.681 50.5151 105.25C50.1978 105.819 49.7544 106.267 49.1851 106.594C48.6158 106.911 47.9764 107.07 47.2671 107.07ZM47.2671 106.188C47.7898 106.188 48.2564 106.071 48.6671 105.838C49.0871 105.595 49.4138 105.255 49.6471 104.816C49.8804 104.377 49.9971 103.878 49.9971 103.318C49.9971 102.758 49.8804 102.259 49.6471 101.82C49.4138 101.381 49.0871 101.045 48.6671 100.812C48.2564 100.569 47.7898 100.448 47.2671 100.448C46.7444 100.448 46.2731 100.569 45.8531 100.812C45.4424 101.045 45.1158 101.381 44.8731 101.82C44.6398 102.259 44.5231 102.758 44.5231 103.318C44.5231 103.878 44.6398 104.377 44.8731 104.816C45.1158 105.255 45.4424 105.595 45.8531 105.838C46.2731 106.071 46.7444 106.188 47.2671 106.188ZM53.9864 101.078C54.2198 100.583 54.5651 100.21 55.0224 99.958C55.4891 99.706 56.0631 99.58 56.7444 99.58V100.546L56.5064 100.532C55.7318 100.532 55.1251 100.77 54.6864 101.246C54.2478 101.722 54.0284 102.389 54.0284 103.248V107H53.0344V99.636H53.9864V101.078ZM62.7367 106.552C62.55 106.72 62.3167 106.851 62.0367 106.944C61.766 107.028 61.4813 107.07 61.1827 107.07C60.492 107.07 59.96 106.883 59.5867 106.51C59.2133 106.137 59.0267 105.609 59.0267 104.928V100.476H57.7107V99.636H59.0267V98.026H60.0207V99.636H62.2607V100.476H60.0207V104.872C60.0207 105.311 60.128 105.647 60.3427 105.88C60.5667 106.104 60.884 106.216 61.2947 106.216C61.5 106.216 61.696 106.183 61.8827 106.118C62.0787 106.053 62.2467 105.959 62.3867 105.838L62.7367 106.552ZM66.9822 97.382C66.5528 97.382 66.2262 97.4987 66.0022 97.732C65.7875 97.9653 65.6802 98.3107 65.6802 98.768V99.636H67.9482V100.476H65.7082V107H64.7142V100.476H63.3982V99.636H64.7142V98.726C64.7142 98.054 64.9055 97.522 65.2882 97.13C65.6802 96.738 66.2308 96.542 66.9402 96.542C67.2202 96.542 67.4908 96.584 67.7522 96.668C68.0135 96.7427 68.2328 96.8547 68.4102 97.004L68.0742 97.746C67.7848 97.5033 67.4208 97.382 66.9822 97.382ZM72.1773 107.07C71.4679 107.07 70.8286 106.911 70.2593 106.594C69.6899 106.267 69.2419 105.819 68.9153 105.25C68.5886 104.681 68.4253 104.037 68.4253 103.318C68.4253 102.599 68.5886 101.955 68.9153 101.386C69.2419 100.817 69.6899 100.373 70.2593 100.056C70.8286 99.7387 71.4679 99.58 72.1773 99.58C72.8866 99.58 73.5259 99.7387 74.0953 100.056C74.6646 100.373 75.1079 100.817 75.4253 101.386C75.7519 101.955 75.9153 102.599 75.9153 103.318C75.9153 104.037 75.7519 104.681 75.4253 105.25C75.1079 105.819 74.6646 106.267 74.0953 106.594C73.5259 106.911 72.8866 107.07 72.1773 107.07ZM72.1773 106.188C72.6999 106.188 73.1666 106.071 73.5773 105.838C73.9973 105.595 74.3239 105.255 74.5573 104.816C74.7906 104.377 74.9073 103.878 74.9073 103.318C74.9073 102.758 74.7906 102.259 74.5573 101.82C74.3239 101.381 73.9973 101.045 73.5773 100.812C73.1666 100.569 72.6999 100.448 72.1773 100.448C71.6546 100.448 71.1833 100.569 70.7633 100.812C70.3526 101.045 70.0259 101.381 69.7833 101.82C69.5499 102.259 69.4333 102.758 69.4333 103.318C69.4333 103.878 69.5499 104.377 69.7833 104.816C70.0259 105.255 70.3526 105.595 70.7633 105.838C71.1833 106.071 71.6546 106.188 72.1773 106.188ZM77.9446 96.612H78.9386V107H77.9446V96.612ZM81.7044 99.636H82.6984V107H81.7044V99.636ZM82.2084 98.026C82.003 98.026 81.8304 97.956 81.6904 97.816C81.5504 97.676 81.4804 97.508 81.4804 97.312C81.4804 97.1253 81.5504 96.962 81.6904 96.822C81.8304 96.682 82.003 96.612 82.2084 96.612C82.4137 96.612 82.5864 96.682 82.7264 96.822C82.8664 96.9527 82.9364 97.1113 82.9364 97.298C82.9364 97.5033 82.8664 97.676 82.7264 97.816C82.5864 97.956 82.4137 98.026 82.2084 98.026ZM88.4741 107.07C87.7648 107.07 87.1255 106.911 86.5561 106.594C85.9868 106.267 85.5388 105.819 85.2121 105.25C84.8855 104.681 84.7221 104.037 84.7221 103.318C84.7221 102.599 84.8855 101.955 85.2121 101.386C85.5388 100.817 85.9868 100.373 86.5561 100.056C87.1255 99.7387 87.7648 99.58 88.4741 99.58C89.1835 99.58 89.8228 99.7387 90.3921 100.056C90.9615 100.373 91.4048 100.817 91.7221 101.386C92.0488 101.955 92.2121 102.599 92.2121 103.318C92.2121 104.037 92.0488 104.681 91.7221 105.25C91.4048 105.819 90.9615 106.267 90.3921 106.594C89.8228 106.911 89.1835 107.07 88.4741 107.07ZM88.4741 106.188C88.9968 106.188 89.4635 106.071 89.8741 105.838C90.2941 105.595 90.6208 105.255 90.8541 104.816C91.0875 104.377 91.2041 103.878 91.2041 103.318C91.2041 102.758 91.0875 102.259 90.8541 101.82C90.6208 101.381 90.2941 101.045 89.8741 100.812C89.4635 100.569 88.9968 100.448 88.4741 100.448C87.9515 100.448 87.4801 100.569 87.0601 100.812C86.6495 101.045 86.3228 101.381 86.0801 101.82C85.8468 102.259 85.7301 102.758 85.7301 103.318C85.7301 103.878 85.8468 104.377 86.0801 104.816C86.3228 105.255 86.6495 105.595 87.0601 105.838C87.4801 106.071 87.9515 106.188 88.4741 106.188ZM108.294 97.2V107H107.3V99.16L103.45 105.754H102.96L99.1095 99.202V107H98.1155V97.2H98.9695L103.226 104.466L107.44 97.2H108.294ZM113.853 99.58C114.814 99.58 115.551 99.8227 116.065 100.308C116.578 100.784 116.835 101.493 116.835 102.436V107H115.883V105.852C115.659 106.235 115.327 106.533 114.889 106.748C114.459 106.963 113.946 107.07 113.349 107.07C112.527 107.07 111.874 106.874 111.389 106.482C110.903 106.09 110.661 105.572 110.661 104.928C110.661 104.303 110.885 103.799 111.333 103.416C111.79 103.033 112.513 102.842 113.503 102.842H115.841V102.394C115.841 101.759 115.663 101.279 115.309 100.952C114.954 100.616 114.436 100.448 113.755 100.448C113.288 100.448 112.84 100.527 112.411 100.686C111.981 100.835 111.613 101.045 111.305 101.316L110.857 100.574C111.23 100.257 111.678 100.014 112.201 99.846C112.723 99.6687 113.274 99.58 113.853 99.58ZM113.503 106.286C114.063 106.286 114.543 106.16 114.945 105.908C115.346 105.647 115.645 105.273 115.841 104.788V103.584H113.531C112.271 103.584 111.641 104.023 111.641 104.9C111.641 105.329 111.804 105.67 112.131 105.922C112.457 106.165 112.915 106.286 113.503 106.286ZM123.286 99.58C124.21 99.58 124.943 99.8507 125.484 100.392C126.035 100.924 126.31 101.703 126.31 102.73V107H125.316V102.828C125.316 102.063 125.125 101.479 124.742 101.078C124.36 100.677 123.814 100.476 123.104 100.476C122.311 100.476 121.681 100.714 121.214 101.19C120.757 101.657 120.528 102.305 120.528 103.136V107H119.534V99.636H120.486V100.994C120.757 100.546 121.13 100.201 121.606 99.958C122.092 99.706 122.652 99.58 123.286 99.58ZM131.585 99.58C132.546 99.58 133.284 99.8227 133.797 100.308C134.31 100.784 134.567 101.493 134.567 102.436V107H133.615V105.852C133.391 106.235 133.06 106.533 132.621 106.748C132.192 106.963 131.678 107.07 131.081 107.07C130.26 107.07 129.606 106.874 129.121 106.482C128.636 106.09 128.393 105.572 128.393 104.928C128.393 104.303 128.617 103.799 129.065 103.416C129.522 103.033 130.246 102.842 131.235 102.842H133.573V102.394C133.573 101.759 133.396 101.279 133.041 100.952C132.686 100.616 132.168 100.448 131.487 100.448C131.02 100.448 130.572 100.527 130.143 100.686C129.714 100.835 129.345 101.045 129.037 101.316L128.589 100.574C128.962 100.257 129.41 100.014 129.933 99.846C130.456 99.6687 131.006 99.58 131.585 99.58ZM131.235 106.286C131.795 106.286 132.276 106.16 132.677 105.908C133.078 105.647 133.377 105.273 133.573 104.788V103.584H131.263C130.003 103.584 129.373 104.023 129.373 104.9C129.373 105.329 129.536 105.67 129.863 105.922C130.19 106.165 130.647 106.286 131.235 106.286ZM144.112 99.636V106.104C144.112 107.355 143.804 108.279 143.188 108.876C142.582 109.483 141.662 109.786 140.43 109.786C139.749 109.786 139.1 109.683 138.484 109.478C137.878 109.282 137.383 109.007 137 108.652L137.504 107.896C137.859 108.213 138.288 108.461 138.792 108.638C139.306 108.815 139.842 108.904 140.402 108.904C141.336 108.904 142.022 108.685 142.46 108.246C142.899 107.817 143.118 107.145 143.118 106.23V105.292C142.81 105.759 142.404 106.113 141.9 106.356C141.406 106.599 140.855 106.72 140.248 106.72C139.558 106.72 138.928 106.571 138.358 106.272C137.798 105.964 137.355 105.539 137.028 104.998C136.711 104.447 136.552 103.827 136.552 103.136C136.552 102.445 136.711 101.829 137.028 101.288C137.355 100.747 137.798 100.327 138.358 100.028C138.918 99.7293 139.548 99.58 140.248 99.58C140.874 99.58 141.438 99.706 141.942 99.958C142.446 100.21 142.852 100.574 143.16 101.05V99.636H144.112ZM140.346 105.838C140.878 105.838 141.359 105.726 141.788 105.502C142.218 105.269 142.549 104.947 142.782 104.536C143.025 104.125 143.146 103.659 143.146 103.136C143.146 102.613 143.025 102.151 142.782 101.75C142.549 101.339 142.218 101.022 141.788 100.798C141.368 100.565 140.888 100.448 140.346 100.448C139.814 100.448 139.334 100.56 138.904 100.784C138.484 101.008 138.153 101.325 137.91 101.736C137.677 102.147 137.56 102.613 137.56 103.136C137.56 103.659 137.677 104.125 137.91 104.536C138.153 104.947 138.484 105.269 138.904 105.502C139.334 105.726 139.814 105.838 140.346 105.838ZM153.304 103.626H147.144C147.2 104.391 147.494 105.012 148.026 105.488C148.558 105.955 149.23 106.188 150.042 106.188C150.499 106.188 150.919 106.109 151.302 105.95C151.685 105.782 152.016 105.539 152.296 105.222L152.856 105.866C152.529 106.258 152.119 106.557 151.624 106.762C151.139 106.967 150.602 107.07 150.014 107.07C149.258 107.07 148.586 106.911 147.998 106.594C147.419 106.267 146.967 105.819 146.64 105.25C146.313 104.681 146.15 104.037 146.15 103.318C146.15 102.599 146.304 101.955 146.612 101.386C146.929 100.817 147.359 100.373 147.9 100.056C148.451 99.7387 149.067 99.58 149.748 99.58C150.429 99.58 151.041 99.7387 151.582 100.056C152.123 100.373 152.548 100.817 152.856 101.386C153.164 101.946 153.318 102.59 153.318 103.318L153.304 103.626ZM149.748 100.434C149.039 100.434 148.441 100.663 147.956 101.12C147.48 101.568 147.209 102.156 147.144 102.884H152.366C152.301 102.156 152.025 101.568 151.54 101.12C151.064 100.663 150.467 100.434 149.748 100.434ZM164.525 99.58C165.449 99.58 166.172 99.846 166.695 100.378C167.227 100.91 167.493 101.694 167.493 102.73V107H166.499V102.828C166.499 102.063 166.312 101.479 165.939 101.078C165.575 100.677 165.057 100.476 164.385 100.476C163.62 100.476 163.018 100.714 162.579 101.19C162.14 101.657 161.921 102.305 161.921 103.136V107H160.927V102.828C160.927 102.063 160.74 101.479 160.367 101.078C160.003 100.677 159.48 100.476 158.799 100.476C158.043 100.476 157.441 100.714 156.993 101.19C156.554 101.657 156.335 102.305 156.335 103.136V107H155.341V99.636H156.293V100.98C156.554 100.532 156.918 100.187 157.385 99.944C157.852 99.7013 158.388 99.58 158.995 99.58C159.611 99.58 160.143 99.7107 160.591 99.972C161.048 100.233 161.389 100.621 161.613 101.134C161.884 100.649 162.271 100.271 162.775 100C163.288 99.72 163.872 99.58 164.525 99.58ZM176.628 103.626H170.468C170.524 104.391 170.818 105.012 171.35 105.488C171.882 105.955 172.554 106.188 173.366 106.188C173.823 106.188 174.243 106.109 174.626 105.95C175.009 105.782 175.34 105.539 175.62 105.222L176.18 105.866C175.853 106.258 175.443 106.557 174.948 106.762C174.463 106.967 173.926 107.07 173.338 107.07C172.582 107.07 171.91 106.911 171.322 106.594C170.743 106.267 170.291 105.819 169.964 105.25C169.637 104.681 169.474 104.037 169.474 103.318C169.474 102.599 169.628 101.955 169.936 101.386C170.253 100.817 170.683 100.373 171.224 100.056C171.775 99.7387 172.391 99.58 173.072 99.58C173.753 99.58 174.365 99.7387 174.906 100.056C175.447 100.373 175.872 100.817 176.18 101.386C176.488 101.946 176.642 102.59 176.642 103.318L176.628 103.626ZM173.072 100.434C172.363 100.434 171.765 100.663 171.28 101.12C170.804 101.568 170.533 102.156 170.468 102.884H175.69C175.625 102.156 175.349 101.568 174.864 101.12C174.388 100.663 173.791 100.434 173.072 100.434ZM182.417 99.58C183.341 99.58 184.074 99.8507 184.615 100.392C185.166 100.924 185.441 101.703 185.441 102.73V107H184.447V102.828C184.447 102.063 184.256 101.479 183.873 101.078C183.491 100.677 182.945 100.476 182.235 100.476C181.442 100.476 180.812 100.714 180.345 101.19C179.888 101.657 179.659 102.305 179.659 103.136V107H178.665V99.636H179.617V100.994C179.888 100.546 180.261 100.201 180.737 99.958C181.223 99.706 181.783 99.58 182.417 99.58ZM192.018 106.552C191.831 106.72 191.598 106.851 191.318 106.944C191.047 107.028 190.763 107.07 190.464 107.07C189.773 107.07 189.241 106.883 188.868 106.51C188.495 106.137 188.308 105.609 188.308 104.928V100.476H186.992V99.636H188.308V98.026H189.302V99.636H191.542V100.476H189.302V104.872C189.302 105.311 189.409 105.647 189.624 105.88C189.848 106.104 190.165 106.216 190.576 106.216C190.781 106.216 190.977 106.183 191.164 106.118C191.36 106.053 191.528 105.959 191.668 105.838L192.018 106.552ZM199.605 98.096H196.161V97.2H204.085V98.096H200.641V107H199.605V98.096ZM207.775 107.07C207.066 107.07 206.426 106.911 205.857 106.594C205.288 106.267 204.84 105.819 204.513 105.25C204.186 104.681 204.023 104.037 204.023 103.318C204.023 102.599 204.186 101.955 204.513 101.386C204.84 100.817 205.288 100.373 205.857 100.056C206.426 99.7387 207.066 99.58 207.775 99.58C208.484 99.58 209.124 99.7387 209.693 100.056C210.262 100.373 210.706 100.817 211.023 101.386C211.35 101.955 211.513 102.599 211.513 103.318C211.513 104.037 211.35 104.681 211.023 105.25C210.706 105.819 210.262 106.267 209.693 106.594C209.124 106.911 208.484 107.07 207.775 107.07ZM207.775 106.188C208.298 106.188 208.764 106.071 209.175 105.838C209.595 105.595 209.922 105.255 210.155 104.816C210.388 104.377 210.505 103.878 210.505 103.318C210.505 102.758 210.388 102.259 210.155 101.82C209.922 101.381 209.595 101.045 209.175 100.812C208.764 100.569 208.298 100.448 207.775 100.448C207.252 100.448 206.781 100.569 206.361 100.812C205.95 101.045 205.624 101.381 205.381 101.82C205.148 102.259 205.031 102.758 205.031 103.318C205.031 103.878 205.148 104.377 205.381 104.816C205.624 105.255 205.95 105.595 206.361 105.838C206.781 106.071 207.252 106.188 207.775 106.188ZM216.552 107.07C215.843 107.07 215.204 106.911 214.634 106.594C214.065 106.267 213.617 105.819 213.29 105.25C212.964 104.681 212.8 104.037 212.8 103.318C212.8 102.599 212.964 101.955 213.29 101.386C213.617 100.817 214.065 100.373 214.634 100.056C215.204 99.7387 215.843 99.58 216.552 99.58C217.262 99.58 217.901 99.7387 218.47 100.056C219.04 100.373 219.483 100.817 219.8 101.386C220.127 101.955 220.29 102.599 220.29 103.318C220.29 104.037 220.127 104.681 219.8 105.25C219.483 105.819 219.04 106.267 218.47 106.594C217.901 106.911 217.262 107.07 216.552 107.07ZM216.552 106.188C217.075 106.188 217.542 106.071 217.952 105.838C218.372 105.595 218.699 105.255 218.932 104.816C219.166 104.377 219.282 103.878 219.282 103.318C219.282 102.758 219.166 102.259 218.932 101.82C218.699 101.381 218.372 101.045 217.952 100.812C217.542 100.569 217.075 100.448 216.552 100.448C216.03 100.448 215.558 100.569 215.138 100.812C214.728 101.045 214.401 101.381 214.158 101.82C213.925 102.259 213.808 102.758 213.808 103.318C213.808 103.878 213.925 104.377 214.158 104.816C214.401 105.255 214.728 105.595 215.138 105.838C215.558 106.071 216.03 106.188 216.552 106.188ZM222.32 96.612H223.314V107H222.32V96.612Z" fill="white"/>
<defs>
<filter id="filter0_d" x="0" y="0" width="270" height="200" filterUnits="userSpaceOnUse" color-interpolation-filters="sRGB">
<feFlood flood-opacity="0" result="BackgroundImageFix"/>
<feColorMatrix in="SourceAlpha" type="matrix" values="0 0 0 0 0 0 0 0 0 0 0 0 0 0 0 0 0 0 127 0" result="hardAlpha"/>
<feOffset dy="12"/>
<feGaussianBlur stdDeviation="6"/>
<feComposite in2="hardAlpha" operator="out"/>
<feColorMatrix type="matrix" values="0 0 0 0 0 0 0 0 0 0 0 0 0 0 0 0 0 0 0.25 0"/>
<feBlend mode="normal" in2="BackgroundImageFix" result="effect1_dropShadow"/>
<feBlend mode="normal" in="SourceGraphic" in2="effect1_dropShadow" result="shape"/>
</filter>
</defs>
</svg>
