<svg width="69" height="20" viewBox="0 0 69 20" fill="none" xmlns="http://www.w3.org/2000/svg">
<g filter="url(#filter0_ii)">
<path d="M59.1456 1.41992H9.7843C5.1637 1.41992 1.41797 5.18547 1.41797 9.83051C1.41797 14.4756 5.1637 18.2411 9.7843 18.2411H59.1456C63.7662 18.2411 67.512 14.4756 67.512 9.83051C67.512 5.18547 63.7662 1.41992 59.1456 1.41992Z" fill="#FDD015"/>
<path d="M59.146 1H9.78465C4.93302 1 1 4.95383 1 9.83112C1 14.7084 4.93302 18.6622 9.78465 18.6622H59.146C63.9977 18.6622 67.9307 14.7084 67.9307 9.83112C67.9307 4.95383 63.9977 1 59.146 1Z" stroke="url(#paint0_linear)"/>
<path d="M16.2288 6.87807L15.7971 9.048H19.331L19.1604 9.90588H15.6264L15.1747 12.1868H19.2808L19.1102 13.0649H14L15.4055 6H20.3651L20.1945 6.87807H16.2288ZM24.2412 9.4618L26.209 13.0649H25.1348L23.5786 10.1784L20.9382 13.0649H19.7334L23.1469 9.39115L21.2996 6H22.3538L23.8095 8.69476L26.3094 6H27.4539L24.2412 9.4618ZM31.1828 6C31.9993 6 32.6318 6.18167 33.0803 6.54501C33.5354 6.90162 33.763 7.40962 33.763 8.06901C33.763 8.66784 33.6291 9.18257 33.3614 9.61319C33.1003 10.0371 32.7222 10.3634 32.2269 10.5922C31.7316 10.8142 31.146 10.9252 30.47 10.9252H28.5926L28.1709 13.0649H27.1669L28.5725 6H31.1828ZM30.4901 10.0472C31.2129 10.0472 31.7718 9.88569 32.1667 9.56273C32.5616 9.23976 32.759 8.77213 32.759 8.15984C32.759 7.74268 32.6151 7.42644 32.3273 7.21113C32.0395 6.98909 31.6279 6.87807 31.0924 6.87807H29.4058L28.7733 10.0472H30.4901ZM36.5431 6.87807L36.1114 9.048H39.6453L39.4747 9.90588H35.9407L35.4889 12.1868H39.5951L39.4245 13.0649H34.3143L35.7198 6H40.6794L40.5087 6.87807H36.5431ZM47.6561 8.06901C47.6561 8.76204 47.472 9.34069 47.1039 9.80495C46.7358 10.2692 46.2171 10.5888 45.5478 10.7638L46.8329 13.0649H45.7687L44.5438 10.9051H44.3531H42.4757L42.054 13.0649H41.04L42.4455 6H45.0659C45.8891 6 46.525 6.18167 46.9734 6.54501C47.4285 6.90162 47.6561 7.40962 47.6561 8.06901ZM44.3832 10.0472C45.106 10.0472 45.6649 9.88569 46.0598 9.56273C46.4547 9.23976 46.6521 8.77213 46.6521 8.15984C46.6521 7.73595 46.5082 7.41635 46.2204 7.20103C45.9326 6.98572 45.5177 6.87807 44.9755 6.87807H43.2788L42.6463 10.0472H44.3832ZM50.8571 6.87807H48.4576L48.6283 6H54.4412L54.2605 6.87807H51.861L50.6262 13.0649H49.6322L50.8571 6.87807Z" fill="#3F2D3B"/>
</g>
<defs>
<filter id="filter0_ii" x="-3.5" y="-3.5" width="75.9297" height="26.6621" filterUnits="userSpaceOnUse" color-interpolation-filters="sRGB">
<feFlood flood-opacity="0" result="BackgroundImageFix"/>
<feBlend mode="normal" in="SourceGraphic" in2="BackgroundImageFix" result="shape"/>
<feColorMatrix in="SourceAlpha" type="matrix" values="0 0 0 0 0 0 0 0 0 0 0 0 0 0 0 0 0 0 127 0" result="hardAlpha"/>
<feOffset dx="4" dy="4"/>
<feGaussianBlur stdDeviation="4"/>
<feComposite in2="hardAlpha" operator="arithmetic" k2="-1" k3="1"/>
<feColorMatrix type="matrix" values="0 0 0 0 0 0 0 0 0 0 0 0 0 0 0 0 0 0 0.07 0"/>
<feBlend mode="normal" in2="shape" result="effect1_innerShadow"/>
<feColorMatrix in="SourceAlpha" type="matrix" values="0 0 0 0 0 0 0 0 0 0 0 0 0 0 0 0 0 0 127 0" result="hardAlpha"/>
<feOffset dx="-4" dy="-4"/>
<feGaussianBlur stdDeviation="4"/>
<feComposite in2="hardAlpha" operator="arithmetic" k2="-1" k3="1"/>
<feColorMatrix type="matrix" values="0 0 0 0 0 0 0 0 0 0 0 0 0 0 0 0 0 0 0.07 0"/>
<feBlend mode="normal" in2="effect1_innerShadow" result="effect2_innerShadow"/>
</filter>
<linearGradient id="paint0_linear" x1="1.41832" y1="1.42053" x2="2.36188" y2="20.7763" gradientUnits="userSpaceOnUse">
<stop stop-color="white"/>
<stop offset="1" stop-color="white" stop-opacity="0.5"/>
</linearGradient>
</defs>
</svg>
