<svg width="146" height="29" viewBox="0 0 146 29" fill="none" xmlns="http://www.w3.org/2000/svg">
<path d="M9.13478 22.7733V19.7156C9.13478 18.9351 9.77217 18.3023 10.5584 18.3023H13.4326C13.8102 18.3023 14.1723 18.4512 14.4393 18.7163C14.7063 18.9813 14.8563 19.3408 14.8563 19.7156V22.7733C14.8539 23.0978 14.9821 23.4099 15.2124 23.6402C15.4427 23.8705 15.7561 24 16.0829 24H18.0438C18.9596 24.0023 19.8388 23.6428 20.4872 23.0008C21.1356 22.3588 21.5 21.487 21.5 20.5778V11.8669C21.5 11.1325 21.1721 10.4358 20.6046 9.96467L13.934 4.67587C12.7737 3.74856 11.1111 3.7785 9.98539 4.74698L3.46701 9.96467C2.87274 10.422 2.51755 11.1206 2.5 11.8669V20.5689C2.5 22.4639 4.04738 24 5.95617 24H7.87229C8.55123 24 9.103 23.4562 9.10792 22.7822L9.13478 22.7733Z" fill="#3F2D3B"/>
<path d="M42.296 14.556H44.51V19.578C43.862 20.094 43.106 20.49 42.242 20.766C41.378 21.042 40.49 21.18 39.578 21.18C38.294 21.18 37.136 20.904 36.104 20.352C35.072 19.788 34.262 19.014 33.674 18.03C33.086 17.046 32.792 15.936 32.792 14.7C32.792 13.464 33.086 12.354 33.674 11.37C34.262 10.386 35.072 9.618 36.104 9.066C37.148 8.502 38.318 8.22 39.614 8.22C40.67 8.22 41.63 8.394 42.494 8.742C43.358 9.09 44.084 9.6 44.672 10.272L43.196 11.712C42.236 10.752 41.078 10.272 39.722 10.272C38.834 10.272 38.042 10.458 37.346 10.83C36.662 11.202 36.122 11.724 35.726 12.396C35.342 13.068 35.15 13.836 35.15 14.7C35.15 15.54 35.342 16.296 35.726 16.968C36.122 17.64 36.662 18.168 37.346 18.552C38.042 18.936 38.828 19.128 39.704 19.128C40.688 19.128 41.552 18.912 42.296 18.48V14.556ZM51.7003 21.126C50.7283 21.126 49.8523 20.916 49.0723 20.496C48.2923 20.076 47.6803 19.494 47.2363 18.75C46.8043 17.994 46.5883 17.142 46.5883 16.194C46.5883 15.246 46.8043 14.4 47.2363 13.656C47.6803 12.912 48.2923 12.33 49.0723 11.91C49.8523 11.49 50.7283 11.28 51.7003 11.28C52.6843 11.28 53.5663 11.49 54.3463 11.91C55.1263 12.33 55.7323 12.912 56.1643 13.656C56.6083 14.4 56.8303 15.246 56.8303 16.194C56.8303 17.142 56.6083 17.994 56.1643 18.75C55.7323 19.494 55.1263 20.076 54.3463 20.496C53.5663 20.916 52.6843 21.126 51.7003 21.126ZM51.7003 19.2C52.5283 19.2 53.2123 18.924 53.7523 18.372C54.2923 17.82 54.5623 17.094 54.5623 16.194C54.5623 15.294 54.2923 14.568 53.7523 14.016C53.2123 13.464 52.5283 13.188 51.7003 13.188C50.8723 13.188 50.1883 13.464 49.6483 14.016C49.1203 14.568 48.8563 15.294 48.8563 16.194C48.8563 17.094 49.1203 17.82 49.6483 18.372C50.1883 18.924 50.8723 19.2 51.7003 19.2ZM69.7345 20.478C69.4705 20.694 69.1465 20.856 68.7625 20.964C68.3905 21.072 67.9945 21.126 67.5745 21.126C66.5185 21.126 65.7025 20.85 65.1265 20.298C64.5505 19.746 64.2625 18.942 64.2625 17.886V13.26H62.6785V11.46H64.2625V9.264H66.5125V11.46H69.0865V13.26H66.5125V17.832C66.5125 18.3 66.6265 18.66 66.8545 18.912C67.0825 19.152 67.4125 19.272 67.8445 19.272C68.3485 19.272 68.7685 19.14 69.1045 18.876L69.7345 20.478ZM75.589 21.126C74.617 21.126 73.741 20.916 72.961 20.496C72.181 20.076 71.569 19.494 71.125 18.75C70.693 17.994 70.477 17.142 70.477 16.194C70.477 15.246 70.693 14.4 71.125 13.656C71.569 12.912 72.181 12.33 72.961 11.91C73.741 11.49 74.617 11.28 75.589 11.28C76.573 11.28 77.455 11.49 78.235 11.91C79.015 12.33 79.621 12.912 80.053 13.656C80.497 14.4 80.719 15.246 80.719 16.194C80.719 17.142 80.497 17.994 80.053 18.75C79.621 19.494 79.015 20.076 78.235 20.496C77.455 20.916 76.573 21.126 75.589 21.126ZM75.589 19.2C76.417 19.2 77.101 18.924 77.641 18.372C78.181 17.82 78.451 17.094 78.451 16.194C78.451 15.294 78.181 14.568 77.641 14.016C77.101 13.464 76.417 13.188 75.589 13.188C74.761 13.188 74.077 13.464 73.537 14.016C73.009 14.568 72.745 15.294 72.745 16.194C72.745 17.094 73.009 17.82 73.537 18.372C74.077 18.924 74.761 19.2 75.589 19.2ZM99.2571 8.4V21H96.9171V15.6H90.4011V21H88.0611V8.4H90.4011V13.602H96.9171V8.4H99.2571ZM106.737 21.126C105.765 21.126 104.889 20.916 104.109 20.496C103.329 20.076 102.717 19.494 102.273 18.75C101.841 17.994 101.625 17.142 101.625 16.194C101.625 15.246 101.841 14.4 102.273 13.656C102.717 12.912 103.329 12.33 104.109 11.91C104.889 11.49 105.765 11.28 106.737 11.28C107.721 11.28 108.603 11.49 109.383 11.91C110.163 12.33 110.769 12.912 111.201 13.656C111.645 14.4 111.867 15.246 111.867 16.194C111.867 17.142 111.645 17.994 111.201 18.75C110.769 19.494 110.163 20.076 109.383 20.496C108.603 20.916 107.721 21.126 106.737 21.126ZM106.737 19.2C107.565 19.2 108.249 18.924 108.789 18.372C109.329 17.82 109.599 17.094 109.599 16.194C109.599 15.294 109.329 14.568 108.789 14.016C108.249 13.464 107.565 13.188 106.737 13.188C105.909 13.188 105.225 13.464 104.685 14.016C104.157 14.568 103.893 15.294 103.893 16.194C103.893 17.094 104.157 17.82 104.685 18.372C105.225 18.924 105.909 19.2 106.737 19.2ZM126.151 11.28C127.363 11.28 128.323 11.634 129.031 12.342C129.739 13.038 130.093 14.088 130.093 15.492V21H127.843V15.78C127.843 14.94 127.657 14.31 127.285 13.89C126.913 13.458 126.379 13.242 125.683 13.242C124.927 13.242 124.321 13.494 123.865 13.998C123.409 14.49 123.181 15.198 123.181 16.122V21H120.931V15.78C120.931 14.94 120.745 14.31 120.373 13.89C120.001 13.458 119.467 13.242 118.771 13.242C118.003 13.242 117.391 13.488 116.935 13.98C116.491 14.472 116.269 15.186 116.269 16.122V21H114.019V11.388H116.161V12.612C116.521 12.18 116.971 11.85 117.511 11.622C118.051 11.394 118.651 11.28 119.311 11.28C120.031 11.28 120.667 11.418 121.219 11.694C121.783 11.958 122.227 12.354 122.551 12.882C122.947 12.378 123.457 11.988 124.081 11.712C124.705 11.424 125.395 11.28 126.151 11.28ZM142.092 16.248C142.092 16.404 142.08 16.626 142.056 16.914H134.514C134.646 17.622 134.988 18.186 135.54 18.606C136.104 19.014 136.8 19.218 137.628 19.218C138.684 19.218 139.554 18.87 140.238 18.174L141.444 19.56C141.012 20.076 140.466 20.466 139.806 20.73C139.146 20.994 138.402 21.126 137.574 21.126C136.518 21.126 135.588 20.916 134.784 20.496C133.98 20.076 133.356 19.494 132.912 18.75C132.48 17.994 132.264 17.142 132.264 16.194C132.264 15.258 132.474 14.418 132.894 13.674C133.326 12.918 133.92 12.33 134.676 11.91C135.432 11.49 136.284 11.28 137.232 11.28C138.168 11.28 139.002 11.49 139.734 11.91C140.478 12.318 141.054 12.9 141.462 13.656C141.882 14.4 142.092 15.264 142.092 16.248ZM137.232 13.08C136.512 13.08 135.9 13.296 135.396 13.728C134.904 14.148 134.604 14.712 134.496 15.42H139.95C139.854 14.724 139.56 14.16 139.068 13.728C138.576 13.296 137.964 13.08 137.232 13.08Z" fill="#3F2D3B"/>
</svg>
