<svg width="210" height="60" viewBox="0 0 210 60" fill="none" xmlns="http://www.w3.org/2000/svg">
<rect width="210" height="60" rx="30" fill="#E7A554"/>
<path d="M96.338 22.2H99.458V39H96.338V22.2ZM110.986 26.04C112.602 26.04 113.898 26.512 114.874 27.456C115.85 28.4 116.338 29.8 116.338 31.656V39H113.338V32.04C113.338 30.92 113.074 30.08 112.546 29.52C112.018 28.944 111.266 28.656 110.29 28.656C109.186 28.656 108.314 28.992 107.674 29.664C107.034 30.32 106.714 31.272 106.714 32.52V39H103.714V26.184H106.57V27.84C107.066 27.248 107.69 26.8 108.442 26.496C109.194 26.192 110.042 26.04 110.986 26.04ZM131.909 26.184L126.413 39H123.317L117.821 26.184H120.941L124.925 35.688L129.029 26.184H131.909ZM145.481 32.664C145.481 32.872 145.465 33.168 145.433 33.552H135.377C135.553 34.496 136.009 35.248 136.745 35.808C137.497 36.352 138.425 36.624 139.529 36.624C140.937 36.624 142.097 36.16 143.009 35.232L144.617 37.08C144.041 37.768 143.313 38.288 142.433 38.64C141.553 38.992 140.561 39.168 139.457 39.168C138.049 39.168 136.809 38.888 135.737 38.328C134.665 37.768 133.833 36.992 133.241 36C132.665 34.992 132.377 33.856 132.377 32.592C132.377 31.344 132.657 30.224 133.217 29.232C133.793 28.224 134.585 27.44 135.593 26.88C136.601 26.32 137.737 26.04 139.001 26.04C140.249 26.04 141.361 26.32 142.337 26.88C143.329 27.424 144.097 28.2 144.641 29.208C145.201 30.2 145.481 31.352 145.481 32.664ZM139.001 28.44C138.041 28.44 137.225 28.728 136.553 29.304C135.897 29.864 135.497 30.616 135.353 31.56H142.625C142.497 30.632 142.105 29.88 141.449 29.304C140.793 28.728 139.977 28.44 139.001 28.44ZM152.323 39.168C151.283 39.168 150.267 39.032 149.275 38.76C148.283 38.488 147.491 38.144 146.899 37.728L148.051 35.448C148.627 35.832 149.315 36.144 150.115 36.384C150.931 36.608 151.731 36.72 152.515 36.72C154.307 36.72 155.203 36.248 155.203 35.304C155.203 34.856 154.971 34.544 154.507 34.368C154.059 34.192 153.331 34.024 152.323 33.864C151.267 33.704 150.403 33.52 149.731 33.312C149.075 33.104 148.499 32.744 148.003 32.232C147.523 31.704 147.283 30.976 147.283 30.048C147.283 28.832 147.787 27.864 148.795 27.144C149.819 26.408 151.195 26.04 152.923 26.04C153.803 26.04 154.683 26.144 155.563 26.352C156.443 26.544 157.163 26.808 157.723 27.144L156.571 29.424C155.483 28.784 154.259 28.464 152.899 28.464C152.019 28.464 151.347 28.6 150.883 28.872C150.435 29.128 150.211 29.472 150.211 29.904C150.211 30.384 150.451 30.728 150.931 30.936C151.427 31.128 152.187 31.312 153.211 31.488C154.235 31.648 155.075 31.832 155.731 32.04C156.387 32.248 156.947 32.6 157.411 33.096C157.891 33.592 158.131 34.296 158.131 35.208C158.131 36.408 157.611 37.368 156.571 38.088C155.531 38.808 154.115 39.168 152.323 39.168ZM168.418 38.304C168.066 38.592 167.634 38.808 167.122 38.952C166.626 39.096 166.098 39.168 165.538 39.168C164.13 39.168 163.042 38.8 162.274 38.064C161.506 37.328 161.122 36.256 161.122 34.848V28.68H159.01V26.28H161.122V23.352H164.122V26.28H167.554V28.68H164.122V34.776C164.122 35.4 164.274 35.88 164.578 36.216C164.882 36.536 165.322 36.696 165.898 36.696C166.57 36.696 167.13 36.52 167.578 36.168L168.418 38.304Z" fill="#3F2D3B"/>
<path d="M66 22.8333C66 24.9417 64.2818 26.6667 62.1818 26.6667C61.8382 26.6667 61.5136 26.6283 61.2082 26.5325L54.4118 33.3367C54.5073 33.6433 54.5455 33.9883 54.5455 34.3333C54.5455 36.4417 52.8273 38.1667 50.7273 38.1667C48.6273 38.1667 46.9091 36.4417 46.9091 34.3333C46.9091 33.9883 46.9473 33.6433 47.0427 33.3367L42.1745 28.4492C41.8691 28.545 41.5255 28.5833 41.1818 28.5833C40.8382 28.5833 40.4945 28.545 40.1891 28.4492L31.5027 37.1892C31.5982 37.4958 31.6364 37.8217 31.6364 38.1667C31.6364 40.275 29.9182 42 27.8182 42C25.7182 42 24 40.275 24 38.1667C24 36.0583 25.7182 34.3333 27.8182 34.3333C28.1618 34.3333 28.4864 34.3717 28.7918 34.4675L37.4973 25.7467C37.4018 25.44 37.3636 25.095 37.3636 24.75C37.3636 22.6417 39.0818 20.9167 41.1818 20.9167C43.2818 20.9167 45 22.6417 45 24.75C45 25.095 44.9618 25.44 44.8664 25.7467L49.7345 30.6342C50.04 30.5383 50.3836 30.5 50.7273 30.5C51.0709 30.5 51.4145 30.5383 51.72 30.6342L58.4973 23.8108C58.4018 23.5042 58.3636 23.1783 58.3636 22.8333C58.3636 20.725 60.0818 19 62.1818 19C64.2818 19 66 20.725 66 22.8333Z" fill="#3F2D3B"/>
</svg>
