<svg width="135" height="46" viewBox="0 0 135 46" fill="none" xmlns="http://www.w3.org/2000/svg">
<path d="M9.85507 18.4679L0 22.4152L4.08316 11.1904L22.3422 18.2789L12.4714 45.4138L9.85507 18.4679Z" fill="#67C18C"/>
<path d="M31.6194 26.9193L12.4727 45.4157L22.3434 18.2808L40.6029 25.3702L36.5197 36.5949L31.6194 26.9193Z" fill="#1D915C"/>
<path d="M22.3316 18.255L22.324 18.2759L4.07031 11.1895L4.07336 11.1812L28.9716 0.00146484L22.3316 18.255Z" fill="#48785D"/>
<path d="M40.5741 25.3565L22.332 18.2746L22.3442 18.2411L28.9797 0L40.5741 25.3565Z" fill="#485950"/>
<path d="M57.9903 28.4342V17.5641H52.2734V15.1011H66.2739V17.5641H60.5765V28.4342H57.9903Z" fill="#3F2D3B"/>
<path d="M73.2895 28.4342C72.5506 28.4342 71.9154 28.1812 71.3839 27.675C70.8524 27.1688 70.5867 26.5639 70.5867 25.8602V24.8417H73.1534V25.3232C73.1534 25.6689 73.1729 25.8664 73.2118 25.9158C73.2636 25.9528 73.471 25.9713 73.834 25.9713H81.3204C81.6834 25.9713 81.8843 25.9528 81.9232 25.9158C81.975 25.8664 82.001 25.6689 82.001 25.3232V23.638C82.001 23.2924 81.975 23.101 81.9232 23.064C81.8843 23.0269 81.6834 23.0084 81.3204 23.0084H73.2895C72.5506 23.0084 71.9154 22.7553 71.3839 22.2492C70.8524 21.7307 70.5867 21.1196 70.5867 20.4159V17.6752C70.5867 16.9715 70.8524 16.3666 71.3839 15.8604C71.9154 15.3542 72.5506 15.1011 73.2895 15.1011H81.8843C82.6232 15.1011 83.2584 15.3542 83.7899 15.8604C84.3214 16.3666 84.5872 16.9715 84.5872 17.6752V18.6937H82.001V18.2122C82.001 17.8665 81.975 17.6752 81.9232 17.6381C81.8843 17.5888 81.6834 17.5641 81.3204 17.5641H73.834C73.471 17.5641 73.2636 17.5888 73.2118 17.6381C73.1729 17.6752 73.1534 17.8665 73.1534 18.2122V19.8974C73.1534 20.243 73.1729 20.4344 73.2118 20.4714C73.2636 20.5085 73.471 20.527 73.834 20.527H81.8843C82.6232 20.527 83.2584 20.7862 83.7899 21.3047C84.3214 21.8109 84.5872 22.4158 84.5872 23.1195V25.8602C84.5872 26.5639 84.3214 27.1688 83.7899 27.675C83.2584 28.1812 82.6232 28.4342 81.8843 28.4342H73.2895Z" fill="#3F2D3B"/>
<path d="M92.2908 28.4342C91.5519 28.4342 90.9167 28.1812 90.3852 27.675C89.8537 27.1688 89.5879 26.5639 89.5879 25.8602V17.6752C89.5879 16.9715 89.8537 16.3666 90.3852 15.8604C90.9167 15.3542 91.5519 15.1011 92.2908 15.1011H100.886C101.624 15.1011 102.26 15.3542 102.791 15.8604C103.323 16.3666 103.588 16.9715 103.588 17.6752V25.8602C103.588 26.5639 103.323 27.1688 102.791 27.675C102.26 28.1812 101.624 28.4342 100.886 28.4342H92.2908ZM92.8352 25.9713H100.322C100.672 25.9713 100.873 25.9528 100.924 25.9158C100.976 25.8664 101.002 25.6689 101.002 25.3232V18.2122C101.002 17.8665 100.976 17.6752 100.924 17.6381C100.873 17.5888 100.672 17.5641 100.322 17.5641H92.8352C92.4723 17.5641 92.2649 17.5888 92.213 17.6381C92.1741 17.6752 92.1547 17.8665 92.1547 18.2122V25.3232C92.1547 25.6689 92.1741 25.8664 92.213 25.9158C92.2649 25.9528 92.4723 25.9713 92.8352 25.9713Z" fill="#3F2D3B"/>
<path d="M112.687 28.4342L107.593 15.1011H110.315L113.698 23.8973L117.082 15.1011H119.59L122.974 23.8973L126.338 15.1011H129.079L123.985 28.4342H121.963L118.326 18.99L114.71 28.4342H112.687Z" fill="#3F2D3B"/>
<path d="M132.872 13.1953C131.699 13.1953 130.745 14.1039 130.745 15.2207C130.745 16.3376 131.699 17.2462 132.872 17.2462C134.045 17.2462 134.999 16.3376 134.999 15.2207C134.999 14.1039 134.045 13.1953 132.872 13.1953ZM132.872 16.9461C131.873 16.9461 131.06 16.1721 131.06 15.2207C131.06 14.2694 131.873 13.4954 132.872 13.4954C133.871 13.4954 134.684 14.2694 134.684 15.2207C134.684 16.1721 133.871 16.9461 132.872 16.9461Z" fill="#3F2D3B"/>
<path d="M131.608 14.8358H131.969V15.798H132.215V14.8358H132.575V14.64H131.608V14.8358Z" fill="#3F2D3B"/>
<path d="M133.429 15.43L133.209 14.64H132.841V15.798H133.069V14.8864L133.31 15.798H133.546L133.788 14.8864V15.798H134.016V14.64H133.648L133.429 15.43Z" fill="#3F2D3B"/>
</svg>
