<svg width="188" height="63" viewBox="0 0 188 63" fill="none" xmlns="http://www.w3.org/2000/svg">
<g filter="url(#filter0_d)">
<path d="M19.2575 22.3474L10 26.0554L13.8356 15.5112L30.9875 22.1699L21.7152 47.6595L19.2575 22.3474Z" fill="#67C18C"/>
<path d="M39.6967 30.2862L21.7109 47.661L30.9832 22.1714L48.1355 28.831L44.2999 39.3751L39.6967 30.2862Z" fill="#1D915C"/>
<path d="M30.9939 22.1492L30.9867 22.1689L13.8398 15.5121L13.8427 15.5043L37.2313 5.00244L30.9939 22.1492Z" fill="#48785D"/>
<path d="M48.1204 28.8191L30.9844 22.1665L30.9958 22.1351L37.2289 5L48.1204 28.8191Z" fill="#485950"/>
</g>
<path d="M67.4238 37.6004V20.5805H58.4727V16.7243H80.3937V20.5805H71.4731V37.6004H67.4238Z" fill="#ECF0F3"/>
<path d="M91.3783 37.6004C90.2214 37.6004 89.2268 37.2041 88.3946 36.4116C87.5624 35.6191 87.1463 34.6719 87.1463 33.5701V31.9754H91.1652V32.7293C91.1652 33.2705 91.1956 33.5798 91.2565 33.6571C91.3377 33.7151 91.6625 33.7441 92.2308 33.7441H103.952C104.521 33.7441 104.835 33.7151 104.896 33.6571C104.977 33.5798 105.018 33.2705 105.018 32.7293V30.0908C105.018 29.5495 104.977 29.2499 104.896 29.1919C104.835 29.1339 104.521 29.1049 103.952 29.1049H91.3783C90.2214 29.1049 89.2268 28.7087 88.3946 27.9162C87.5624 27.1043 87.1463 26.1475 87.1463 25.0457V20.7545C87.1463 19.6527 87.5624 18.7056 88.3946 17.913C89.2268 17.1205 90.2214 16.7243 91.3783 16.7243H104.835C105.992 16.7243 106.987 17.1205 107.819 17.913C108.651 18.7056 109.067 19.6527 109.067 20.7545V22.3492H105.018V21.5953C105.018 21.0541 104.977 20.7545 104.896 20.6965C104.835 20.6192 104.521 20.5805 103.952 20.5805H92.2308C91.6625 20.5805 91.3377 20.6192 91.2565 20.6965C91.1956 20.7545 91.1652 21.0541 91.1652 21.5953V24.2339C91.1652 24.7751 91.1956 25.0747 91.2565 25.1327C91.3377 25.1907 91.6625 25.2197 92.2308 25.2197H104.835C105.992 25.2197 106.987 25.6256 107.819 26.4374C108.651 27.23 109.067 28.1771 109.067 29.2789V33.5701C109.067 34.6719 108.651 35.6191 107.819 36.4116C106.987 37.2041 105.992 37.6004 104.835 37.6004H91.3783Z" fill="#ECF0F3"/>
<path d="M121.129 37.6004C119.972 37.6004 118.978 37.2041 118.146 36.4116C117.313 35.6191 116.897 34.6719 116.897 33.5701V20.7545C116.897 19.6527 117.313 18.7056 118.146 17.913C118.978 17.1205 119.972 16.7243 121.129 16.7243H134.586C135.743 16.7243 136.738 17.1205 137.57 17.913C138.402 18.7056 138.818 19.6527 138.818 20.7545V33.5701C138.818 34.6719 138.402 35.6191 137.57 36.4116C136.738 37.2041 135.743 37.6004 134.586 37.6004H121.129ZM121.982 33.7441H133.703C134.251 33.7441 134.566 33.7151 134.647 33.6571C134.728 33.5798 134.769 33.2705 134.769 32.7293V21.5953C134.769 21.0541 134.728 20.7545 134.647 20.6965C134.566 20.6192 134.251 20.5805 133.703 20.5805H121.982C121.413 20.5805 121.089 20.6192 121.007 20.6965C120.947 20.7545 120.916 21.0541 120.916 21.5953V32.7293C120.916 33.2705 120.947 33.5798 121.007 33.6571C121.089 33.7151 121.413 33.7441 121.982 33.7441Z" fill="#ECF0F3"/>
<path d="M153.065 37.6004L145.088 16.7243H149.35L154.648 30.4967L159.945 16.7243H163.873L169.171 30.4967L174.438 16.7243H178.731L170.754 37.6004H167.587L161.894 22.8131L156.231 37.6004H153.065Z" fill="#ECF0F3"/>
<path d="M184.669 13.7402C182.833 13.7402 181.339 15.1628 181.339 16.9115C181.339 18.6602 182.833 20.0828 184.669 20.0828C186.505 20.0828 187.999 18.6602 187.999 16.9115C187.999 15.1628 186.505 13.7402 184.669 13.7402ZM184.669 19.613C183.105 19.613 181.832 18.4011 181.832 16.9115C181.832 15.422 183.105 14.2101 184.669 14.2101C186.233 14.2101 187.506 15.422 187.506 16.9115C187.506 18.4011 186.233 19.613 184.669 19.613Z" fill="#ECF0F3"/>
<path d="M182.69 16.3089H183.255V17.8153H183.64V16.3089H184.203V16.0022H182.69V16.3089Z" fill="#ECF0F3"/>
<path d="M185.541 17.2391L185.196 16.0022H184.621V17.8153H184.978V16.388L185.354 17.8153H185.725L186.102 16.388V17.8153H186.46V16.0022H185.883L185.541 17.2391Z" fill="#ECF0F3"/>
<defs>
<filter id="filter0_d" x="0" y="0" width="58.1367" height="62.6611" filterUnits="userSpaceOnUse" color-interpolation-filters="sRGB">
<feFlood flood-opacity="0" result="BackgroundImageFix"/>
<feColorMatrix in="SourceAlpha" type="matrix" values="0 0 0 0 0 0 0 0 0 0 0 0 0 0 0 0 0 0 127 0" result="hardAlpha"/>
<feOffset dy="5"/>
<feGaussianBlur stdDeviation="5"/>
<feComposite in2="hardAlpha" operator="out"/>
<feColorMatrix type="matrix" values="0 0 0 0 0 0 0 0 0 0 0 0 0 0 0 0 0 0 0.25 0"/>
<feBlend mode="normal" in2="BackgroundImageFix" result="effect1_dropShadow"/>
<feBlend mode="normal" in="SourceGraphic" in2="effect1_dropShadow" result="shape"/>
</filter>
</defs>
</svg>
