<svg width="321" height="649" viewBox="0 0 321 649" fill="none" xmlns="http://www.w3.org/2000/svg">
<path fill-rule="evenodd" clip-rule="evenodd" d="M318.008 149.135H318.756C319.583 149.135 320.253 149.806 320.253 150.634V222.579C320.253 223.407 319.583 224.078 318.756 224.078H318.008V149.135Z" fill="#121515"/>
<path fill-rule="evenodd" clip-rule="evenodd" d="M0.75 194.1C0.75 193.272 1.42001 192.602 2.2465 192.602H2.99476V239.815H2.2465C1.42001 239.815 0.75 239.144 0.75 238.316V194.1Z" fill="#121515"/>
<path fill-rule="evenodd" clip-rule="evenodd" d="M0.75 134.896C0.75 134.068 1.42001 133.397 2.2465 133.397H2.99476V180.611H2.2465C1.42001 180.611 0.75 179.94 0.75 179.112V134.896Z" fill="#121515"/>
<path fill-rule="evenodd" clip-rule="evenodd" d="M0.75 89.181C0.75 88.3529 1.42001 87.6821 2.2465 87.6821H2.99476V112.413H2.2465C1.42001 112.413 0.75 111.742 0.75 110.914V89.181Z" fill="#121515"/>
<path fill-rule="evenodd" clip-rule="evenodd" d="M2.99219 48.7127C2.99219 22.6373 24.0975 1.49902 50.132 1.49902H270.866C296.901 1.49902 318.006 22.6373 318.006 48.7127V597.29C318.006 623.366 296.901 644.504 270.866 644.504H50.132C24.0975 644.504 2.99219 623.366 2.99219 597.29V48.7127Z" fill="black"/>
<path fill-rule="evenodd" clip-rule="evenodd" d="M194.545 31.4756C197.85 31.4756 200.531 28.7914 200.531 25.4802C200.531 22.1691 197.85 19.4849 194.545 19.4849C191.239 19.4849 188.559 22.1691 188.559 25.4802C188.559 28.7914 191.239 31.4756 194.545 31.4756Z" fill="#262C2D"/>
<path fill-rule="evenodd" clip-rule="evenodd" d="M194.546 29.2276C196.612 29.2276 198.287 27.55 198.287 25.4805C198.287 23.4111 196.612 21.7334 194.546 21.7334C192.48 21.7334 190.805 23.4111 190.805 25.4805C190.805 27.55 192.48 29.2276 194.546 29.2276Z" fill="#121515"/>
<path opacity="0.4" fill-rule="evenodd" clip-rule="evenodd" d="M194.545 24.7313C194.958 24.7313 195.293 24.3957 195.293 23.9818C195.293 23.5679 194.958 23.2324 194.545 23.2324C194.132 23.2324 193.797 23.5679 193.797 23.9818C193.797 24.3957 194.132 24.7313 194.545 24.7313Z" fill="#636F73"/>
<path fill-rule="evenodd" clip-rule="evenodd" d="M141.422 25.4807C141.422 24.239 142.427 23.2324 143.667 23.2324H177.338C178.578 23.2324 179.583 24.239 179.583 25.4807C179.583 26.7224 178.578 27.729 177.338 27.729H143.667C142.427 27.729 141.422 26.7224 141.422 25.4807Z" fill="#262C2D"/>
<mask id="mask0" style="mask-type:alpha" maskUnits="userSpaceOnUse" x="20" y="18" width="281" height="610">
<path fill-rule="evenodd" clip-rule="evenodd" d="M99.5178 41.2185H221.483C231.401 41.2185 239.441 33.1658 239.441 22.2956C239.543 20.3742 241.077 18.8375 242.991 18.7407L272.364 18.7358C288.068 18.7358 300.798 31.4859 300.798 47.2139V598.789C300.798 614.517 288.068 627.267 272.364 627.267H48.6367C32.9333 627.267 20.2031 614.517 20.2031 598.789V47.2139C20.2031 31.4859 32.9333 18.7358 48.6367 18.7358H78.0056C79.9241 18.8375 81.458 20.3742 81.5553 22.2907C81.5598 33.1658 89.5997 41.2185 99.5178 41.2185Z" fill="white"/>
</mask>
<g mask="url(#mask0)">
<path fill-rule="evenodd" clip-rule="evenodd" d="M20.2031 18.7358H300.798V627.267H20.2031V18.7358Z" fill="#0F0F0F"/>
</g>
</svg>
