<svg width="120" height="24" viewBox="0 0 120 24" fill="none" xmlns="http://www.w3.org/2000/svg">
<path d="M8.93244 23.1568V7.05664H0.726562V3.40873H20.8226V7.05664H12.6446V23.1568H8.93244Z" fill="#ECF0F3"/>
<path d="M30.8926 23.1568C29.832 23.1568 28.9202 22.782 28.1573 22.0323C27.3944 21.2826 27.013 20.3866 27.013 19.3444V17.8358H30.6972V18.5489C30.6972 19.0609 30.7252 19.3535 30.781 19.4266C30.8554 19.4815 31.1531 19.5089 31.6741 19.5089H42.4199C42.9409 19.5089 43.2294 19.4815 43.2852 19.4266C43.3596 19.3535 43.3968 19.0609 43.3968 18.5489V16.053C43.3968 15.541 43.3596 15.2576 43.2852 15.2027C43.2294 15.1479 42.9409 15.1205 42.4199 15.1205H30.8926C29.832 15.1205 28.9202 14.7456 28.1573 13.9959C27.3944 13.2279 27.013 12.3228 27.013 11.2805V7.22121C27.013 6.17895 27.3944 5.28297 28.1573 4.53327C28.9202 3.78358 29.832 3.40873 30.8926 3.40873H43.2293C44.29 3.40873 45.2017 3.78358 45.9646 4.53327C46.7275 5.28297 47.109 6.17895 47.109 7.22121V8.72974H43.3968V8.01662C43.3968 7.50463 43.3596 7.22121 43.2852 7.16635C43.2294 7.09321 42.9409 7.05664 42.4199 7.05664H31.6741C31.1531 7.05664 30.8554 7.09321 30.781 7.16635C30.7252 7.22121 30.6972 7.50463 30.6972 8.01662V10.5126C30.6972 11.0245 30.7252 11.308 30.781 11.3628C30.8554 11.4177 31.1531 11.4451 31.6741 11.4451H43.2293C44.29 11.4451 45.2017 11.8291 45.9646 12.5971C46.7275 13.3468 47.109 14.2428 47.109 15.285V19.3444C47.109 20.3866 46.7275 21.2826 45.9646 22.0323C45.2017 22.782 44.29 23.1568 43.2293 23.1568H30.8926Z" fill="#ECF0F3"/>
<path d="M58.1666 23.1568C57.106 23.1568 56.1942 22.782 55.4313 22.0323C54.6684 21.2826 54.287 20.3866 54.287 19.3444V7.22121C54.287 6.17895 54.6684 5.28297 55.4313 4.53327C56.1942 3.78358 57.106 3.40873 58.1666 3.40873H70.5033C71.564 3.40873 72.4757 3.78358 73.2386 4.53327C74.0015 5.28297 74.383 6.17895 74.383 7.22121V19.3444C74.383 20.3866 74.0015 21.2826 73.2386 22.0323C72.4757 22.782 71.564 23.1568 70.5033 23.1568H58.1666ZM58.9481 19.5089H69.6939C70.1963 19.5089 70.4847 19.4815 70.5592 19.4266C70.6336 19.3535 70.6708 19.0609 70.6708 18.5489V8.01662C70.6708 7.50463 70.6336 7.22121 70.5592 7.16635C70.4847 7.09321 70.1963 7.05664 69.6939 7.05664H58.9481C58.4271 7.05664 58.1294 7.09321 58.055 7.16635C57.9991 7.22121 57.9712 7.50463 57.9712 8.01662V18.5489C57.9712 19.0609 57.9991 19.3535 58.055 19.4266C58.1294 19.4815 58.4271 19.5089 58.9481 19.5089Z" fill="#ECF0F3"/>
<path d="M87.4432 23.1568L80.1305 3.40873H84.0381L88.8946 16.437L93.7511 3.40873H97.3517L102.208 16.437L107.037 3.40873H110.972L103.66 23.1568H100.757L95.5374 9.16859L90.346 23.1568H87.4432Z" fill="#ECF0F3"/>
<path d="M116.416 0.585938C114.733 0.585938 113.364 1.93168 113.364 3.58587C113.364 5.24005 114.733 6.5858 116.416 6.5858C118.1 6.5858 119.469 5.24005 119.469 3.58587C119.469 1.93168 118.1 0.585938 116.416 0.585938ZM116.416 6.14136C114.982 6.14136 113.816 4.99494 113.816 3.58587C113.816 2.17679 114.982 1.03037 116.416 1.03037C117.85 1.03037 119.017 2.17679 119.017 3.58587C119.017 4.99494 117.85 6.14136 116.416 6.14136Z" fill="#ECF0F3"/>
<path d="M114.602 3.01579H115.12V4.44086H115.473V3.01579H115.989V2.72566H114.602V3.01579Z" fill="#ECF0F3"/>
<path d="M117.216 3.89575L116.899 2.72566H116.372V4.44086H116.699V3.09067L117.045 4.44086H117.384L117.73 3.09067V4.44086H118.058V2.72566H117.529L117.216 3.89575Z" fill="#ECF0F3"/>
</svg>
