<svg width="286" height="119" viewBox="0 0 286 119" fill="none" xmlns="http://www.w3.org/2000/svg">
<rect x="0.15" y="0.15" width="285.3" height="118.7" rx="21.85" fill="white" stroke="#1877F2" stroke-width="0.3"/>
<path d="M143.58 105.923C142.4 105.923 141.332 105.665 140.376 105.147C139.431 104.619 138.689 103.899 138.149 102.988C137.61 102.066 137.34 101.032 137.34 99.8849C137.34 98.738 137.61 97.7092 138.149 96.7984C138.689 95.8763 139.437 95.1567 140.393 94.6395C141.348 94.111 142.417 93.8467 143.597 93.8467C144.519 93.8467 145.363 94.0041 146.127 94.319C146.892 94.6226 147.544 95.078 148.084 95.6852L146.988 96.7478C146.099 95.8145 144.992 95.3478 143.665 95.3478C142.788 95.3478 141.995 95.5446 141.287 95.9382C140.578 96.3317 140.022 96.8771 139.617 97.5742C139.223 98.2601 139.026 99.0304 139.026 99.8849C139.026 100.74 139.223 101.515 139.617 102.213C140.022 102.898 140.578 103.438 141.287 103.832C141.995 104.225 142.788 104.422 143.665 104.422C144.98 104.422 146.088 103.95 146.988 103.005L148.084 104.068C147.544 104.675 146.886 105.136 146.11 105.451C145.346 105.766 144.503 105.923 143.58 105.923Z" fill="#958E97"/>
<path d="M153.704 105.889C152.815 105.889 152.017 105.693 151.309 105.299C150.6 104.906 150.044 104.366 149.639 103.68C149.245 102.983 149.049 102.196 149.049 101.319C149.049 100.442 149.245 99.6601 149.639 98.9742C150.044 98.277 150.6 97.7373 151.309 97.355C152.017 96.9614 152.815 96.7646 153.704 96.7646C154.592 96.7646 155.385 96.9614 156.082 97.355C156.79 97.7373 157.341 98.277 157.735 98.9742C158.14 99.6601 158.342 100.442 158.342 101.319C158.342 102.196 158.14 102.983 157.735 103.68C157.341 104.366 156.79 104.906 156.082 105.299C155.385 105.693 154.592 105.889 153.704 105.889ZM153.704 104.473C154.277 104.473 154.789 104.343 155.239 104.085C155.7 103.815 156.059 103.444 156.318 102.972C156.577 102.488 156.706 101.937 156.706 101.319C156.706 100.7 156.577 100.155 156.318 99.6826C156.059 99.199 155.7 98.828 155.239 98.5694C154.789 98.3107 154.277 98.1814 153.704 98.1814C153.13 98.1814 152.613 98.3107 152.152 98.5694C151.702 98.828 151.342 99.199 151.073 99.6826C150.814 100.155 150.685 100.7 150.685 101.319C150.685 101.937 150.814 102.488 151.073 102.972C151.342 103.444 151.702 103.815 152.152 104.085C152.613 104.343 153.13 104.473 153.704 104.473Z" fill="#958E97"/>
<path d="M160.581 96.849H162.2V105.788H160.581V96.849ZM161.391 95.1286C161.076 95.1286 160.812 95.0274 160.598 94.825C160.396 94.6226 160.295 94.3752 160.295 94.0829C160.295 93.7905 160.396 93.5431 160.598 93.3407C160.812 93.1271 161.076 93.0203 161.391 93.0203C161.706 93.0203 161.964 93.1215 162.167 93.3239C162.38 93.515 162.487 93.7568 162.487 94.0491C162.487 94.3527 162.38 94.6113 162.167 94.825C161.964 95.0274 161.706 95.1286 161.391 95.1286Z" fill="#958E97"/>
<path d="M170.065 96.7646C171.201 96.7646 172.101 97.0963 172.764 97.7598C173.439 98.4119 173.776 99.3733 173.776 100.644V105.788H172.157V100.829C172.157 99.9637 171.949 99.3115 171.533 98.873C171.117 98.4344 170.521 98.2152 169.745 98.2152C168.868 98.2152 168.176 98.4738 167.67 98.991C167.164 99.497 166.911 100.228 166.911 101.184V105.788H165.292V96.849H166.844V98.1983C167.17 97.7373 167.608 97.3831 168.159 97.1357C168.722 96.8883 169.357 96.7646 170.065 96.7646Z" fill="#958E97"/>
<path d="M179.336 105.889C178.605 105.889 177.903 105.794 177.228 105.603C176.553 105.4 176.025 105.147 175.642 104.844L176.317 103.562C176.711 103.843 177.189 104.068 177.751 104.237C178.313 104.405 178.881 104.49 179.454 104.49C180.871 104.49 181.579 104.085 181.579 103.275C181.579 103.005 181.484 102.792 181.293 102.634C181.102 102.477 180.86 102.364 180.567 102.297C180.286 102.218 179.882 102.134 179.353 102.044C178.633 101.931 178.043 101.802 177.582 101.656C177.132 101.51 176.744 101.262 176.418 100.914C176.092 100.565 175.929 100.076 175.929 99.4464C175.929 98.6368 176.267 97.9903 176.941 97.5068C177.616 97.012 178.521 96.7646 179.657 96.7646C180.253 96.7646 180.849 96.8377 181.445 96.9839C182.041 97.1301 182.53 97.3269 182.912 97.5742L182.22 98.8561C181.49 98.3838 180.629 98.1477 179.64 98.1477C178.954 98.1477 178.431 98.2601 178.071 98.485C177.711 98.7099 177.532 99.0079 177.532 99.379C177.532 99.6713 177.633 99.9018 177.835 100.07C178.038 100.239 178.285 100.363 178.577 100.442C178.881 100.52 179.303 100.61 179.842 100.711C180.562 100.835 181.141 100.97 181.579 101.116C182.029 101.251 182.412 101.487 182.726 101.825C183.041 102.162 183.199 102.634 183.199 103.241C183.199 104.051 182.85 104.698 182.153 105.181C181.467 105.653 180.528 105.889 179.336 105.889Z" fill="#958E97"/>
<path d="M147.201 51.3335V81.6933H144.078V54.1092H136.922V51.3335H147.201Z" fill="#3F2D3B"/>
<path d="M156.8 81.9101C156.164 81.9101 155.615 81.6788 155.152 81.2162C154.718 80.7536 154.501 80.1898 154.501 79.5247C154.501 78.8597 154.718 78.3103 155.152 77.8766C155.615 77.414 156.164 77.1827 156.8 77.1827C157.436 77.1827 157.986 77.414 158.448 77.8766C158.911 78.3103 159.142 78.8597 159.142 79.5247C159.142 80.1898 158.911 80.7536 158.448 81.2162C157.986 81.6788 157.436 81.9101 156.8 81.9101Z" fill="#3F2D3B"/>
<path d="M188.904 73.713H182.832V81.6933H179.71V73.713H162.578V71.4577L178.669 51.3335H182.138L166.611 70.9372H179.796V63.9111H182.832V70.9372H188.904V73.713Z" fill="#3F2D3B"/>
<path d="M237.343 51.3335V81.6933H234.264V57.4055L222.337 77.8333H220.819L208.892 57.5356V81.6933H205.812V51.3335H208.458L221.643 73.8431L234.698 51.3335H237.343Z" fill="#3F2D3B"/>
<path d="M106.992 64.0655L100.328 66.7345L103.089 59.1448L115.435 63.9377L108.761 82.2852L106.992 64.0655Z" fill="#67C18C"/>
<path d="M121.755 69.7763L108.809 82.2828L115.483 63.9353L127.829 68.7289L125.068 76.3186L121.755 69.7763Z" fill="#1D915C"/>
<path d="M115.465 63.9187L115.46 63.9328L103.117 59.1413L103.119 59.1357L119.954 51.5764L115.465 63.9187Z" fill="#48785D"/>
<path d="M127.85 68.7236L115.516 63.9351L115.524 63.9125L120.01 51.5786L127.85 68.7236Z" fill="#485950"/>
<path d="M95.7474 21.9814H91.0039V19.5826H103.149V21.9814H98.4054V34.8474H95.7474V21.9814Z" fill="#DE8211"/>
<path d="M107.493 35.0001C106.607 35.0001 105.742 34.8765 104.897 34.6294C104.051 34.3822 103.377 34.0697 102.872 33.6917L103.854 31.62C104.344 31.9689 104.931 32.2524 105.612 32.4705C106.307 32.674 106.989 32.7758 107.657 32.7758C109.183 32.7758 109.947 32.3469 109.947 31.4892C109.947 31.0821 109.749 30.7986 109.354 30.6387C108.972 30.4788 108.352 30.3261 107.493 30.1808C106.594 30.0354 105.858 29.8682 105.285 29.6792C104.726 29.4902 104.235 29.1631 103.813 28.6979C103.404 28.2182 103.2 27.5567 103.2 26.7135C103.2 25.6086 103.629 24.7291 104.488 24.0748C105.36 23.4061 106.532 23.0717 108.004 23.0717C108.754 23.0717 109.504 23.1662 110.253 23.3552C111.003 23.5297 111.616 23.7696 112.094 24.0748L111.112 26.1465C110.185 25.565 109.143 25.2742 107.984 25.2742C107.234 25.2742 106.662 25.3978 106.266 25.6449C105.885 25.8775 105.694 26.1901 105.694 26.5826C105.694 27.0188 105.898 27.3313 106.307 27.5203C106.73 27.6948 107.377 27.862 108.25 28.0219C109.122 28.1673 109.838 28.3345 110.397 28.5234C110.955 28.7124 111.432 29.0323 111.828 29.4829C112.237 29.9336 112.441 30.5733 112.441 31.402C112.441 32.4923 111.998 33.3646 111.112 34.0188C110.226 34.673 109.02 35.0001 107.493 35.0001Z" fill="#DE8211"/>
<path d="M119.549 35.0001C118.445 35.0001 117.45 34.7457 116.564 34.2368C115.678 33.728 114.983 33.0229 114.479 32.1216C113.988 31.2057 113.743 30.1735 113.743 29.025C113.743 27.8765 113.988 26.8516 114.479 25.9502C114.983 25.0489 115.678 24.3438 116.564 23.835C117.45 23.3261 118.445 23.0717 119.549 23.0717C120.667 23.0717 121.669 23.3261 122.555 23.835C123.441 24.3438 124.129 25.0489 124.62 25.9502C125.124 26.8516 125.376 27.8765 125.376 29.025C125.376 30.1735 125.124 31.2057 124.62 32.1216C124.129 33.0229 123.441 33.728 122.555 34.2368C121.669 34.7457 120.667 35.0001 119.549 35.0001ZM119.549 32.6667C120.49 32.6667 121.267 32.3324 121.88 31.6636C122.493 30.9949 122.8 30.1153 122.8 29.025C122.8 27.9347 122.493 27.0551 121.88 26.3864C121.267 25.7176 120.49 25.3833 119.549 25.3833C118.609 25.3833 117.832 25.7176 117.218 26.3864C116.619 27.0551 116.319 27.9347 116.319 29.025C116.319 30.1153 116.619 30.9949 117.218 31.6636C117.832 32.3324 118.609 32.6667 119.549 32.6667Z" fill="#DE8211"/>
<path d="M144.552 23.2026L140.524 34.8474H138.071L135.249 26.8225L132.387 34.8474H129.933L125.926 23.2026H128.339L131.222 31.7945L134.227 23.2026H136.374L139.318 31.8381L142.283 23.2026H144.552Z" fill="#DE8211"/>
<path d="M164.923 19.5826V34.8474H162.735L154.843 24.511V34.8474H152.206V19.5826H154.393L162.285 29.9191V19.5826H164.923Z" fill="#DE8211"/>
<path d="M178.777 29.0904C178.777 29.2794 178.763 29.5484 178.736 29.8973H170.169C170.319 30.755 170.707 31.4383 171.334 31.9471C171.975 32.4414 172.766 32.6886 173.706 32.6886C174.906 32.6886 175.894 32.267 176.671 31.4238L178.041 33.1029C177.55 33.728 176.93 34.2005 176.18 34.5203C175.43 34.8402 174.585 35.0001 173.645 35.0001C172.445 35.0001 171.389 34.7457 170.476 34.2368C169.562 33.728 168.854 33.0229 168.349 32.1216C167.858 31.2057 167.613 30.1735 167.613 29.025C167.613 27.891 167.852 26.8734 168.329 25.972C168.819 25.0562 169.494 24.3438 170.353 23.835C171.212 23.3261 172.179 23.0717 173.256 23.0717C174.319 23.0717 175.267 23.3261 176.098 23.835C176.943 24.3293 177.598 25.0343 178.061 25.9502C178.538 26.8516 178.777 27.8983 178.777 29.0904ZM173.256 25.2524C172.438 25.2524 171.743 25.5141 171.171 26.0375C170.612 26.5463 170.271 27.2296 170.148 28.0873H176.344C176.235 27.2441 175.901 26.5608 175.342 26.0375C174.783 25.5141 174.088 25.2524 173.256 25.2524Z" fill="#DE8211"/>
<path d="M187.795 34.215C187.495 34.4767 187.127 34.673 186.691 34.8038C186.268 34.9347 185.818 35.0001 185.341 35.0001C184.142 35.0001 183.215 34.6657 182.561 33.997C181.906 33.3282 181.579 32.3542 181.579 31.0748V25.4705H179.78V23.2898H181.579V20.6294H184.135V23.2898H187.059V25.4705H184.135V31.0094C184.135 31.5764 184.264 32.0125 184.523 32.3178C184.782 32.6086 185.157 32.754 185.648 32.754C186.22 32.754 186.698 32.5941 187.079 32.2742L187.795 34.215Z" fill="#DE8211"/>
<path d="M206.729 23.2026L202.701 34.8474H200.248L197.426 26.8225L194.564 34.8474H192.11L188.103 23.2026H190.515L193.398 31.7945L196.404 23.2026H198.551L201.495 31.8381L204.46 23.2026H206.729Z" fill="#DE8211"/>
<path d="M213.094 35.0001C211.99 35.0001 210.995 34.7457 210.109 34.2368C209.223 33.728 208.528 33.0229 208.023 32.1216C207.533 31.2057 207.287 30.1735 207.287 29.025C207.287 27.8765 207.533 26.8516 208.023 25.9502C208.528 25.0489 209.223 24.3438 210.109 23.835C210.995 23.3261 211.99 23.0717 213.094 23.0717C214.212 23.0717 215.214 23.3261 216.1 23.835C216.986 24.3438 217.674 25.0489 218.165 25.9502C218.669 26.8516 218.921 27.8765 218.921 29.025C218.921 30.1735 218.669 31.2057 218.165 32.1216C217.674 33.0229 216.986 33.728 216.1 34.2368C215.214 34.7457 214.212 35.0001 213.094 35.0001ZM213.094 32.6667C214.035 32.6667 214.811 32.3324 215.425 31.6636C216.038 30.9949 216.345 30.1153 216.345 29.025C216.345 27.9347 216.038 27.0551 215.425 26.3864C214.811 25.7176 214.035 25.3833 213.094 25.3833C212.153 25.3833 211.377 25.7176 210.763 26.3864C210.163 27.0551 209.863 27.9347 209.863 29.025C209.863 30.1153 210.163 30.9949 210.763 31.6636C211.377 32.3324 212.153 32.6667 213.094 32.6667Z" fill="#DE8211"/>
<path d="M223.798 24.9035C224.534 23.6823 225.829 23.0717 227.683 23.0717V25.6667C227.465 25.6231 227.267 25.6013 227.09 25.6013C226.095 25.6013 225.318 25.9139 224.759 26.539C224.2 27.1496 223.921 28.0364 223.921 29.1995V34.8474H221.365V23.2026H223.798V24.9035Z" fill="#DE8211"/>
<path d="M236.814 34.215C236.514 34.4767 236.146 34.673 235.709 34.8038C235.287 34.9347 234.837 35.0001 234.36 35.0001C233.16 35.0001 232.234 34.6657 231.579 33.997C230.925 33.3282 230.598 32.3542 230.598 31.0748V25.4705H228.799V23.2898H230.598V20.6294H233.154V23.2898H236.077V25.4705H233.154V31.0094C233.154 31.5764 233.283 32.0125 233.542 32.3178C233.801 32.6086 234.176 32.754 234.667 32.754C235.239 32.754 235.716 32.5941 236.098 32.2742L236.814 34.215Z" fill="#DE8211"/>
<path d="M245.111 23.0717C246.488 23.0717 247.592 23.5006 248.423 24.3583C249.255 25.2161 249.671 26.4881 249.671 28.1745V34.8474H247.115V28.5234C247.115 27.5058 246.89 26.7426 246.44 26.2337C245.99 25.7104 245.35 25.4487 244.518 25.4487C243.578 25.4487 242.835 25.754 242.29 26.3646C241.744 26.9606 241.472 27.8256 241.472 28.9596V34.8474H238.916V18.6667H241.472V24.5546C241.894 24.0748 242.412 23.7114 243.026 23.4643C243.653 23.2026 244.348 23.0717 245.111 23.0717Z" fill="#DE8211"/>
<path d="M48.1391 26.2541C48.4662 25.3952 49.6812 25.3952 50.0082 26.2541L58.5864 48.7821C58.6879 49.0487 58.8985 49.2592 59.1651 49.3607L81.6931 57.9389C82.5519 58.266 82.5519 59.481 81.6931 59.808L59.1651 68.3862C58.8985 68.4877 58.6879 68.6983 58.5864 68.9649L50.0082 91.4929C49.6812 92.3517 48.4662 92.3517 48.1391 91.4929L39.5609 68.9649C39.4594 68.6983 39.2489 68.4877 38.9823 68.3862L16.4543 59.808C15.5954 59.481 15.5954 58.266 16.4543 57.9389L38.9823 49.3607C39.2489 49.2592 39.4594 49.0487 39.5609 48.7821L48.1391 26.2541Z" fill="#44C8F5"/>
</svg>
