<svg width="270" height="200" viewBox="0 0 270 200" fill="none" xmlns="http://www.w3.org/2000/svg">
<g filter="url(#filter0_d)">
<path d="M227.778 47.9198C268.074 59.3783 268.074 116.622 227.778 128.08L64.9123 174.393C38.3754 181.939 12 161.96 12 134.313L12 41.6871C12 14.0398 38.3754 -5.93912 64.9123 1.60694L227.778 47.9198Z" fill="#3F2D3B"/>
</g>
<path d="M38.664 68.84H33.096V66.2H47.352V68.84H41.784V83H38.664V68.84ZM52.4514 83.168C51.4114 83.168 50.3954 83.032 49.4034 82.76C48.4114 82.488 47.6194 82.144 47.0274 81.728L48.1794 79.448C48.7554 79.832 49.4434 80.144 50.2434 80.384C51.0594 80.608 51.8594 80.72 52.6434 80.72C54.4354 80.72 55.3314 80.248 55.3314 79.304C55.3314 78.856 55.0994 78.544 54.6354 78.368C54.1874 78.192 53.4594 78.024 52.4514 77.864C51.3954 77.704 50.5314 77.52 49.8594 77.312C49.2034 77.104 48.6274 76.744 48.1314 76.232C47.6514 75.704 47.4114 74.976 47.4114 74.048C47.4114 72.832 47.9154 71.864 48.9234 71.144C49.9474 70.408 51.3234 70.04 53.0514 70.04C53.9314 70.04 54.8114 70.144 55.6914 70.352C56.5714 70.544 57.2914 70.808 57.8514 71.144L56.6994 73.424C55.6114 72.784 54.3874 72.464 53.0274 72.464C52.1474 72.464 51.4754 72.6 51.0114 72.872C50.5634 73.128 50.3394 73.472 50.3394 73.904C50.3394 74.384 50.5794 74.728 51.0594 74.936C51.5554 75.128 52.3154 75.312 53.3394 75.488C54.3634 75.648 55.2034 75.832 55.8594 76.04C56.5154 76.248 57.0754 76.6 57.5394 77.096C58.0194 77.592 58.2594 78.296 58.2594 79.208C58.2594 80.408 57.7394 81.368 56.6994 82.088C55.6594 82.808 54.2434 83.168 52.4514 83.168ZM66.603 83.168C65.307 83.168 64.139 82.888 63.099 82.328C62.059 81.768 61.243 80.992 60.651 80C60.075 78.992 59.787 77.856 59.787 76.592C59.787 75.328 60.075 74.2 60.651 73.208C61.243 72.216 62.059 71.44 63.099 70.88C64.139 70.32 65.307 70.04 66.603 70.04C67.915 70.04 69.091 70.32 70.131 70.88C71.171 71.44 71.979 72.216 72.555 73.208C73.147 74.2 73.443 75.328 73.443 76.592C73.443 77.856 73.147 78.992 72.555 80C71.979 80.992 71.171 81.768 70.131 82.328C69.091 82.888 67.915 83.168 66.603 83.168ZM66.603 80.6C67.707 80.6 68.619 80.232 69.339 79.496C70.059 78.76 70.419 77.792 70.419 76.592C70.419 75.392 70.059 74.424 69.339 73.688C68.619 72.952 67.707 72.584 66.603 72.584C65.499 72.584 64.587 72.952 63.867 73.688C63.163 74.424 62.811 75.392 62.811 76.592C62.811 77.792 63.163 78.76 63.867 79.496C64.587 80.232 65.499 80.6 66.603 80.6ZM95.9522 70.184L91.2242 83H88.3442L85.0322 74.168L81.6722 83H78.7922L74.0882 70.184H76.9202L80.3042 79.64L83.8322 70.184H86.3522L89.8082 79.688L93.2882 70.184H95.9522ZM105.215 66.2C106.671 66.2 107.935 66.44 109.007 66.92C110.095 67.4 110.927 68.088 111.503 68.984C112.079 69.88 112.367 70.944 112.367 72.176C112.367 73.392 112.079 74.456 111.503 75.368C110.927 76.264 110.095 76.952 109.007 77.432C107.935 77.912 106.671 78.152 105.215 78.152H101.423V83H98.3029V66.2H105.215ZM105.071 75.512C106.431 75.512 107.463 75.224 108.167 74.648C108.871 74.072 109.223 73.248 109.223 72.176C109.223 71.104 108.871 70.28 108.167 69.704C107.463 69.128 106.431 68.84 105.071 68.84H101.423V75.512H105.071ZM117.933 72.056C118.797 70.712 120.317 70.04 122.493 70.04V72.896C122.237 72.848 122.005 72.824 121.797 72.824C120.629 72.824 119.717 73.168 119.061 73.856C118.405 74.528 118.077 75.504 118.077 76.784V83H115.077V70.184H117.933V72.056ZM130.681 83.168C129.385 83.168 128.217 82.888 127.177 82.328C126.137 81.768 125.321 80.992 124.729 80C124.153 78.992 123.865 77.856 123.865 76.592C123.865 75.328 124.153 74.2 124.729 73.208C125.321 72.216 126.137 71.44 127.177 70.88C128.217 70.32 129.385 70.04 130.681 70.04C131.993 70.04 133.169 70.32 134.209 70.88C135.249 71.44 136.057 72.216 136.633 73.208C137.225 74.2 137.521 75.328 137.521 76.592C137.521 77.856 137.225 78.992 136.633 80C136.057 80.992 135.249 81.768 134.209 82.328C133.169 82.888 131.993 83.168 130.681 83.168ZM130.681 80.6C131.785 80.6 132.697 80.232 133.417 79.496C134.137 78.76 134.497 77.792 134.497 76.592C134.497 75.392 134.137 74.424 133.417 73.688C132.697 72.952 131.785 72.584 130.681 72.584C129.577 72.584 128.665 72.952 127.945 73.688C127.241 74.424 126.889 75.392 126.889 76.592C126.889 77.792 127.241 78.76 127.945 79.496C128.665 80.232 129.577 80.6 130.681 80.6Z" fill="white"/>
<path d="M41.1909 107.084C40.2202 107.084 39.3429 106.869 38.5589 106.44C37.7842 106.011 37.1729 105.418 36.7249 104.662C36.2862 103.897 36.0669 103.043 36.0669 102.1C36.0669 101.157 36.2862 100.308 36.7249 99.552C37.1729 98.7867 37.7889 98.1893 38.5729 97.76C39.3569 97.3307 40.2342 97.116 41.2049 97.116C41.9329 97.116 42.6049 97.2373 43.2209 97.48C43.8369 97.7227 44.3595 98.0773 44.7889 98.544L44.1309 99.202C43.3655 98.4273 42.3995 98.04 41.2329 98.04C40.4582 98.04 39.7535 98.2173 39.1189 98.572C38.4842 98.9267 37.9849 99.412 37.6209 100.028C37.2662 100.644 37.0889 101.335 37.0889 102.1C37.0889 102.865 37.2662 103.556 37.6209 104.172C37.9849 104.788 38.4842 105.273 39.1189 105.628C39.7535 105.983 40.4582 106.16 41.2329 106.16C42.4089 106.16 43.3749 105.768 44.1309 104.984L44.7889 105.642C44.3595 106.109 43.8322 106.468 43.2069 106.72C42.5909 106.963 41.9189 107.084 41.1909 107.084ZM49.4692 107.07C48.7599 107.07 48.1206 106.911 47.5512 106.594C46.9819 106.267 46.5339 105.819 46.2072 105.25C45.8806 104.681 45.7172 104.037 45.7172 103.318C45.7172 102.599 45.8806 101.955 46.2072 101.386C46.5339 100.817 46.9819 100.373 47.5512 100.056C48.1206 99.7387 48.7599 99.58 49.4692 99.58C50.1786 99.58 50.8179 99.7387 51.3872 100.056C51.9566 100.373 52.3999 100.817 52.7172 101.386C53.0439 101.955 53.2072 102.599 53.2072 103.318C53.2072 104.037 53.0439 104.681 52.7172 105.25C52.3999 105.819 51.9566 106.267 51.3872 106.594C50.8179 106.911 50.1786 107.07 49.4692 107.07ZM49.4692 106.188C49.9919 106.188 50.4586 106.071 50.8692 105.838C51.2892 105.595 51.6159 105.255 51.8492 104.816C52.0826 104.377 52.1992 103.878 52.1992 103.318C52.1992 102.758 52.0826 102.259 51.8492 101.82C51.6159 101.381 51.2892 101.045 50.8692 100.812C50.4586 100.569 49.9919 100.448 49.4692 100.448C48.9466 100.448 48.4752 100.569 48.0552 100.812C47.6446 101.045 47.3179 101.381 47.0752 101.82C46.8419 102.259 46.7252 102.758 46.7252 103.318C46.7252 103.878 46.8419 104.377 47.0752 104.816C47.3179 105.255 47.6446 105.595 48.0552 105.838C48.4752 106.071 48.9466 106.188 49.4692 106.188ZM58.9886 99.58C59.9126 99.58 60.6453 99.8507 61.1866 100.392C61.7373 100.924 62.0126 101.703 62.0126 102.73V107H61.0186V102.828C61.0186 102.063 60.8273 101.479 60.4446 101.078C60.0619 100.677 59.5159 100.476 58.8066 100.476C58.0133 100.476 57.3833 100.714 56.9166 101.19C56.4593 101.657 56.2306 102.305 56.2306 103.136V107H55.2366V99.636H56.1886V100.994C56.4593 100.546 56.8326 100.201 57.3086 99.958C57.7939 99.706 58.3539 99.58 58.9886 99.58ZM68.5892 106.552C68.4025 106.72 68.1692 106.851 67.8892 106.944C67.6185 107.028 67.3339 107.07 67.0352 107.07C66.3445 107.07 65.8125 106.883 65.4392 106.51C65.0659 106.137 64.8792 105.609 64.8792 104.928V100.476H63.5632V99.636H64.8792V98.026H65.8732V99.636H68.1132V100.476H65.8732V104.872C65.8732 105.311 65.9805 105.647 66.1952 105.88C66.4192 106.104 66.7365 106.216 67.1472 106.216C67.3525 106.216 67.5485 106.183 67.7352 106.118C67.9312 106.053 68.0992 105.959 68.2392 105.838L68.5892 106.552ZM76.5509 103.626H70.3909C70.4469 104.391 70.7409 105.012 71.2729 105.488C71.8049 105.955 72.4769 106.188 73.2889 106.188C73.7463 106.188 74.1663 106.109 74.5489 105.95C74.9316 105.782 75.2629 105.539 75.5429 105.222L76.1029 105.866C75.7763 106.258 75.3656 106.557 74.8709 106.762C74.3856 106.967 73.8489 107.07 73.2609 107.07C72.5049 107.07 71.8329 106.911 71.2449 106.594C70.6663 106.267 70.2136 105.819 69.8869 105.25C69.5603 104.681 69.3969 104.037 69.3969 103.318C69.3969 102.599 69.5509 101.955 69.8589 101.386C70.1763 100.817 70.6056 100.373 71.1469 100.056C71.6976 99.7387 72.3136 99.58 72.9949 99.58C73.6763 99.58 74.2876 99.7387 74.8289 100.056C75.3703 100.373 75.7949 100.817 76.1029 101.386C76.4109 101.946 76.5649 102.59 76.5649 103.318L76.5509 103.626ZM72.9949 100.434C72.2856 100.434 71.6883 100.663 71.2029 101.12C70.7269 101.568 70.4563 102.156 70.3909 102.884H75.6129C75.5476 102.156 75.2723 101.568 74.7869 101.12C74.3109 100.663 73.7136 100.434 72.9949 100.434ZM82.3401 99.58C83.2641 99.58 83.9968 99.8507 84.5381 100.392C85.0888 100.924 85.3641 101.703 85.3641 102.73V107H84.3701V102.828C84.3701 102.063 84.1788 101.479 83.7961 101.078C83.4135 100.677 82.8675 100.476 82.1581 100.476C81.3648 100.476 80.7348 100.714 80.2681 101.19C79.8108 101.657 79.5821 102.305 79.5821 103.136V107H78.5881V99.636H79.5401V100.994C79.8108 100.546 80.1841 100.201 80.6601 99.958C81.1455 99.706 81.7055 99.58 82.3401 99.58ZM91.9408 106.552C91.7541 106.72 91.5208 106.851 91.2408 106.944C90.9701 107.028 90.6854 107.07 90.3868 107.07C89.6961 107.07 89.1641 106.883 88.7908 106.51C88.4174 106.137 88.2308 105.609 88.2308 104.928V100.476H86.9148V99.636H88.2308V98.026H89.2248V99.636H91.4648V100.476H89.2248V104.872C89.2248 105.311 89.3321 105.647 89.5468 105.88C89.7708 106.104 90.0881 106.216 90.4988 106.216C90.7041 106.216 90.9001 106.183 91.0868 106.118C91.2828 106.053 91.4508 105.959 91.5908 105.838L91.9408 106.552ZM101.88 107.084C100.91 107.084 100.032 106.869 99.2483 106.44C98.4737 106.011 97.8623 105.418 97.4143 104.662C96.9757 103.897 96.7563 103.043 96.7563 102.1C96.7563 101.157 96.9757 100.308 97.4143 99.552C97.8623 98.7867 98.4783 98.1893 99.2623 97.76C100.046 97.3307 100.924 97.116 101.894 97.116C102.622 97.116 103.294 97.2373 103.91 97.48C104.526 97.7227 105.049 98.0773 105.478 98.544L104.82 99.202C104.055 98.4273 103.089 98.04 101.922 98.04C101.148 98.04 100.443 98.2173 99.8083 98.572C99.1737 98.9267 98.6743 99.412 98.3103 100.028C97.9557 100.644 97.7783 101.335 97.7783 102.1C97.7783 102.865 97.9557 103.556 98.3103 104.172C98.6743 104.788 99.1737 105.273 99.8083 105.628C100.443 105.983 101.148 106.16 101.922 106.16C103.098 106.16 104.064 105.768 104.82 104.984L105.478 105.642C105.049 106.109 104.522 106.468 103.896 106.72C103.28 106.963 102.608 107.084 101.88 107.084ZM108.429 101.078C108.662 100.583 109.007 100.21 109.465 99.958C109.931 99.706 110.505 99.58 111.187 99.58V100.546L110.949 100.532C110.174 100.532 109.567 100.77 109.129 101.246C108.69 101.722 108.471 102.389 108.471 103.248V107H107.477V99.636H108.429V101.078ZM119.33 103.626H113.17C113.226 104.391 113.52 105.012 114.052 105.488C114.584 105.955 115.256 106.188 116.068 106.188C116.526 106.188 116.946 106.109 117.328 105.95C117.711 105.782 118.042 105.539 118.322 105.222L118.882 105.866C118.556 106.258 118.145 106.557 117.65 106.762C117.165 106.967 116.628 107.07 116.04 107.07C115.284 107.07 114.612 106.911 114.024 106.594C113.446 106.267 112.993 105.819 112.666 105.25C112.34 104.681 112.176 104.037 112.176 103.318C112.176 102.599 112.33 101.955 112.638 101.386C112.956 100.817 113.385 100.373 113.926 100.056C114.477 99.7387 115.093 99.58 115.774 99.58C116.456 99.58 117.067 99.7387 117.608 100.056C118.15 100.373 118.574 100.817 118.882 101.386C119.19 101.946 119.344 102.59 119.344 103.318L119.33 103.626ZM115.774 100.434C115.065 100.434 114.468 100.663 113.982 101.12C113.506 101.568 113.236 102.156 113.17 102.884H118.392C118.327 102.156 118.052 101.568 117.566 101.12C117.09 100.663 116.493 100.434 115.774 100.434ZM123.738 99.58C124.7 99.58 125.437 99.8227 125.95 100.308C126.464 100.784 126.72 101.493 126.72 102.436V107H125.768V105.852C125.544 106.235 125.213 106.533 124.774 106.748C124.345 106.963 123.832 107.07 123.234 107.07C122.413 107.07 121.76 106.874 121.274 106.482C120.789 106.09 120.546 105.572 120.546 104.928C120.546 104.303 120.77 103.799 121.218 103.416C121.676 103.033 122.399 102.842 123.388 102.842H125.726V102.394C125.726 101.759 125.549 101.279 125.194 100.952C124.84 100.616 124.322 100.448 123.64 100.448C123.174 100.448 122.726 100.527 122.296 100.686C121.867 100.835 121.498 101.045 121.19 101.316L120.742 100.574C121.116 100.257 121.564 100.014 122.086 99.846C122.609 99.6687 123.16 99.58 123.738 99.58ZM123.388 106.286C123.948 106.286 124.429 106.16 124.83 105.908C125.232 105.647 125.53 105.273 125.726 104.788V103.584H123.416C122.156 103.584 121.526 104.023 121.526 104.9C121.526 105.329 121.69 105.67 122.016 105.922C122.343 106.165 122.8 106.286 123.388 106.286ZM133.298 106.552C133.112 106.72 132.878 106.851 132.598 106.944C132.328 107.028 132.043 107.07 131.744 107.07C131.054 107.07 130.522 106.883 130.148 106.51C129.775 106.137 129.588 105.609 129.588 104.928V100.476H128.272V99.636H129.588V98.026H130.582V99.636H132.822V100.476H130.582V104.872C130.582 105.311 130.69 105.647 130.904 105.88C131.128 106.104 131.446 106.216 131.856 106.216C132.062 106.216 132.258 106.183 132.444 106.118C132.64 106.053 132.808 105.959 132.948 105.838L133.298 106.552ZM137.858 107.07C137.149 107.07 136.509 106.911 135.94 106.594C135.371 106.267 134.923 105.819 134.596 105.25C134.269 104.681 134.106 104.037 134.106 103.318C134.106 102.599 134.269 101.955 134.596 101.386C134.923 100.817 135.371 100.373 135.94 100.056C136.509 99.7387 137.149 99.58 137.858 99.58C138.567 99.58 139.207 99.7387 139.776 100.056C140.345 100.373 140.789 100.817 141.106 101.386C141.433 101.955 141.596 102.599 141.596 103.318C141.596 104.037 141.433 104.681 141.106 105.25C140.789 105.819 140.345 106.267 139.776 106.594C139.207 106.911 138.567 107.07 137.858 107.07ZM137.858 106.188C138.381 106.188 138.847 106.071 139.258 105.838C139.678 105.595 140.005 105.255 140.238 104.816C140.471 104.377 140.588 103.878 140.588 103.318C140.588 102.758 140.471 102.259 140.238 101.82C140.005 101.381 139.678 101.045 139.258 100.812C138.847 100.569 138.381 100.448 137.858 100.448C137.335 100.448 136.864 100.569 136.444 100.812C136.033 101.045 135.707 101.381 135.464 101.82C135.231 102.259 135.114 102.758 135.114 103.318C135.114 103.878 135.231 104.377 135.464 104.816C135.707 105.255 136.033 105.595 136.444 105.838C136.864 106.071 137.335 106.188 137.858 106.188ZM144.577 101.078C144.811 100.583 145.156 100.21 145.613 99.958C146.08 99.706 146.654 99.58 147.335 99.58V100.546L147.097 100.532C146.323 100.532 145.716 100.77 145.277 101.246C144.839 101.722 144.619 102.389 144.619 103.248V107H143.625V99.636H144.577V101.078ZM156.786 97.2C158.037 97.2 159.017 97.4987 159.726 98.096C160.436 98.6933 160.79 99.5147 160.79 100.56C160.79 101.605 160.436 102.427 159.726 103.024C159.017 103.612 158.037 103.906 156.786 103.906H154.154V107H153.118V97.2H156.786ZM156.758 102.996C157.729 102.996 158.471 102.786 158.984 102.366C159.498 101.937 159.754 101.335 159.754 100.56C159.754 99.7667 159.498 99.16 158.984 98.74C158.471 98.3107 157.729 98.096 156.758 98.096H154.154V102.996H156.758ZM163.581 101.078C163.814 100.583 164.16 100.21 164.617 99.958C165.084 99.706 165.658 99.58 166.339 99.58V100.546L166.101 100.532C165.326 100.532 164.72 100.77 164.281 101.246C163.842 101.722 163.623 102.389 163.623 103.248V107H162.629V99.636H163.581V101.078ZM171.081 107.07C170.371 107.07 169.732 106.911 169.163 106.594C168.593 106.267 168.145 105.819 167.819 105.25C167.492 104.681 167.329 104.037 167.329 103.318C167.329 102.599 167.492 101.955 167.819 101.386C168.145 100.817 168.593 100.373 169.163 100.056C169.732 99.7387 170.371 99.58 171.081 99.58C171.79 99.58 172.429 99.7387 172.999 100.056C173.568 100.373 174.011 100.817 174.329 101.386C174.655 101.955 174.819 102.599 174.819 103.318C174.819 104.037 174.655 104.681 174.329 105.25C174.011 105.819 173.568 106.267 172.999 106.594C172.429 106.911 171.79 107.07 171.081 107.07ZM171.081 106.188C171.603 106.188 172.07 106.071 172.481 105.838C172.901 105.595 173.227 105.255 173.461 104.816C173.694 104.377 173.811 103.878 173.811 103.318C173.811 102.758 173.694 102.259 173.461 101.82C173.227 101.381 172.901 101.045 172.481 100.812C172.07 100.569 171.603 100.448 171.081 100.448C170.558 100.448 170.087 100.569 169.667 100.812C169.256 101.045 168.929 101.381 168.687 101.82C168.453 102.259 168.337 102.758 168.337 103.318C168.337 103.878 168.453 104.377 168.687 104.816C168.929 105.255 169.256 105.595 169.667 105.838C170.087 106.071 170.558 106.188 171.081 106.188ZM183.666 99.636V106.104C183.666 107.355 183.358 108.279 182.742 108.876C182.135 109.483 181.216 109.786 179.984 109.786C179.303 109.786 178.654 109.683 178.038 109.478C177.431 109.282 176.937 109.007 176.554 108.652L177.058 107.896C177.413 108.213 177.842 108.461 178.346 108.638C178.859 108.815 179.396 108.904 179.956 108.904C180.889 108.904 181.575 108.685 182.014 108.246C182.453 107.817 182.672 107.145 182.672 106.23V105.292C182.364 105.759 181.958 106.113 181.454 106.356C180.959 106.599 180.409 106.72 179.802 106.72C179.111 106.72 178.481 106.571 177.912 106.272C177.352 105.964 176.909 105.539 176.582 104.998C176.265 104.447 176.106 103.827 176.106 103.136C176.106 102.445 176.265 101.829 176.582 101.288C176.909 100.747 177.352 100.327 177.912 100.028C178.472 99.7293 179.102 99.58 179.802 99.58C180.427 99.58 180.992 99.706 181.496 99.958C182 100.21 182.406 100.574 182.714 101.05V99.636H183.666ZM179.9 105.838C180.432 105.838 180.913 105.726 181.342 105.502C181.771 105.269 182.103 104.947 182.336 104.536C182.579 104.125 182.7 103.659 182.7 103.136C182.7 102.613 182.579 102.151 182.336 101.75C182.103 101.339 181.771 101.022 181.342 100.798C180.922 100.565 180.441 100.448 179.9 100.448C179.368 100.448 178.887 100.56 178.458 100.784C178.038 101.008 177.707 101.325 177.464 101.736C177.231 102.147 177.114 102.613 177.114 103.136C177.114 103.659 177.231 104.125 177.464 104.536C177.707 104.947 178.038 105.269 178.458 105.502C178.887 105.726 179.368 105.838 179.9 105.838ZM187.398 101.078C187.631 100.583 187.976 100.21 188.434 99.958C188.9 99.706 189.474 99.58 190.156 99.58V100.546L189.918 100.532C189.143 100.532 188.536 100.77 188.098 101.246C187.659 101.722 187.44 102.389 187.44 103.248V107H186.446V99.636H187.398V101.078ZM194.518 99.58C195.479 99.58 196.216 99.8227 196.73 100.308C197.243 100.784 197.5 101.493 197.5 102.436V107H196.548V105.852C196.324 106.235 195.992 106.533 195.554 106.748C195.124 106.963 194.611 107.07 194.014 107.07C193.192 107.07 192.539 106.874 192.054 106.482C191.568 106.09 191.326 105.572 191.326 104.928C191.326 104.303 191.55 103.799 191.998 103.416C192.455 103.033 193.178 102.842 194.168 102.842H196.506V102.394C196.506 101.759 196.328 101.279 195.974 100.952C195.619 100.616 195.101 100.448 194.42 100.448C193.953 100.448 193.505 100.527 193.076 100.686C192.646 100.835 192.278 101.045 191.97 101.316L191.522 100.574C191.895 100.257 192.343 100.014 192.866 99.846C193.388 99.6687 193.939 99.58 194.518 99.58ZM194.168 106.286C194.728 106.286 195.208 106.16 195.61 105.908C196.011 105.647 196.31 105.273 196.506 104.788V103.584H194.196C192.936 103.584 192.306 104.023 192.306 104.9C192.306 105.329 192.469 105.67 192.796 105.922C193.122 106.165 193.58 106.286 194.168 106.286ZM209.383 99.58C210.307 99.58 211.031 99.846 211.553 100.378C212.085 100.91 212.351 101.694 212.351 102.73V107H211.357V102.828C211.357 102.063 211.171 101.479 210.797 101.078C210.433 100.677 209.915 100.476 209.243 100.476C208.478 100.476 207.876 100.714 207.437 101.19C206.999 101.657 206.779 102.305 206.779 103.136V107H205.785V102.828C205.785 102.063 205.599 101.479 205.225 101.078C204.861 100.677 204.339 100.476 203.657 100.476C202.901 100.476 202.299 100.714 201.851 101.19C201.413 101.657 201.193 102.305 201.193 103.136V107H200.199V99.636H201.151V100.98C201.413 100.532 201.777 100.187 202.243 99.944C202.71 99.7013 203.247 99.58 203.853 99.58C204.469 99.58 205.001 99.7107 205.449 99.972C205.907 100.233 206.247 100.621 206.471 101.134C206.742 100.649 207.129 100.271 207.633 100C208.147 99.72 208.73 99.58 209.383 99.58Z" fill="white"/>
<defs>
<filter id="filter0_d" x="0" y="0" width="270" height="200" filterUnits="userSpaceOnUse" color-interpolation-filters="sRGB">
<feFlood flood-opacity="0" result="BackgroundImageFix"/>
<feColorMatrix in="SourceAlpha" type="matrix" values="0 0 0 0 0 0 0 0 0 0 0 0 0 0 0 0 0 0 127 0" result="hardAlpha"/>
<feOffset dy="12"/>
<feGaussianBlur stdDeviation="6"/>
<feComposite in2="hardAlpha" operator="out"/>
<feColorMatrix type="matrix" values="0 0 0 0 0 0 0 0 0 0 0 0 0 0 0 0 0 0 0.25 0"/>
<feBlend mode="normal" in2="BackgroundImageFix" result="effect1_dropShadow"/>
<feBlend mode="normal" in="SourceGraphic" in2="effect1_dropShadow" result="shape"/>
</filter>
</defs>
</svg>
